<?xml version="1.0" encoding="us-ascii" standalone="no"?><svg xmlns="http://www.w3.org/2000/svg" xmlns:xlink="http://www.w3.org/1999/xlink" contentStyleType="text/css" height="1171px" preserveAspectRatio="none" style="width:1035px;height:1171px;background:#FFFFFF;" version="1.1" viewBox="0 0 1035 1171" width="1035px" zoomAndPan="magnify"><defs/><g><text fill="#000000" font-family="sans-serif" font-size="14" font-weight="bold" lengthAdjust="spacing" textLength="238" x="397" y="34.9659">Student Attendance Marking Flow</text><ellipse cx="574.625" cy="60.0679" fill="#F1F1F1" rx="10" ry="10" style="stroke:#181818;stroke-width:0.5;"/><path d="M574.8438,55.0679 Q576.7188,55.0679 577.6719,55.6304 Q578.6406,56.1773 578.6406,57.5523 Q578.6406,58.4273 578.1406,59.021 Q577.6563,59.5992 576.7344,59.7554 L576.7344,59.8335 Q577.3594,59.9273 577.8594,60.1929 Q578.375,60.4585 578.6719,60.9585 Q578.9688,61.4429 578.9688,62.2242 Q578.9688,63.5835 578.0313,64.3335 Q577.1094,65.0679 575.5,65.0679 L571.9844,65.0679 L571.9844,55.0679 L574.8438,55.0679 Z M575.0938,59.3335 Q576.375,59.3335 576.8438,58.9273 Q577.3281,58.5054 577.3281,57.6929 Q577.3281,56.8648 576.75,56.5054 Q576.1719,56.146 574.8906,56.146 L573.25,56.146 L573.25,59.3335 L575.0938,59.3335 Z M573.25,60.3804 L573.25,64.0054 L575.2656,64.0054 Q576.5938,64.0054 577.1094,63.4898 Q577.625,62.9742 577.625,62.1304 Q577.625,61.3492 577.0781,60.8648 Q576.5469,60.3804 575.1563,60.3804 L573.25,60.3804 Z " fill="#000000"/><rect fill="#F1F1F1" height="39.0679" rx="12.5" ry="12.5" style="stroke:#181818;stroke-width:2.0;" width="355" x="397.125" y="90.0679"/><text fill="#000000" font-family="sans-serif" font-size="14" font-weight="bold" lengthAdjust="spacing" textLength="335" x="407.125" y="115.0339">Resolve Model (SchoolStudent / CollegeStudent)</text><rect fill="#F1F1F1" height="39.0679" rx="12.5" ry="12.5" style="stroke:#181818;stroke-width:2.0;" width="207" x="471.125" y="149.1358"/><text fill="#000000" font-family="sans-serif" font-size="14" font-weight="bold" lengthAdjust="spacing" textLength="187" x="481.125" y="174.1018">Fetch Student by userCode</text><rect fill="#F1F1F1" height="39.0679" rx="12.5" ry="12.5" style="stroke:#181818;stroke-width:2.0;" width="218" x="465.625" y="259.7377"/><text fill="#000000" font-family="sans-serif" font-size="14" font-weight="bold" lengthAdjust="spacing" textLength="198" x="475.625" y="284.7036">Return 404 "User not found"</text><ellipse cx="574.625" cy="335.7717" fill="none" rx="11" ry="11" style="stroke:#222222;stroke-width:1.0;"/><ellipse cx="574.625" cy="335.7717" fill="#222222" rx="6" ry="6" style="stroke:#222222;stroke-width:1.0;"/><polygon fill="#F1F1F1" points="519.625,208.2038,629.625,208.2038,641.625,220.2038,629.625,232.2038,519.625,232.2038,507.625,220.2038,519.625,208.2038" style="stroke:#181818;stroke-width:2.0;"/><text fill="#000000" font-family="sans-serif" font-size="14" lengthAdjust="spacing" textLength="19" x="578.625" y="247.1697">No</text><text fill="#000000" font-family="sans-serif" font-size="14" font-weight="bold" lengthAdjust="spacing" textLength="110" x="519.625" y="225.6357">Student Found?</text><text fill="#000000" font-family="sans-serif" font-size="14" lengthAdjust="spacing" textLength="23" x="641.625" y="216.1018">Yes</text><rect fill="#F1F1F1" height="39.0679" rx="12.5" ry="12.5" style="stroke:#181818;stroke-width:2.0;" width="172" x="488.625" y="388.7717"/><text fill="#000000" font-family="sans-serif" font-size="14" font-weight="bold" lengthAdjust="spacing" textLength="152" x="498.625" y="413.7376">Get org from user.org</text><rect fill="#F1F1F1" height="58.1358" rx="12.5" ry="12.5" style="stroke:#181818;stroke-width:2.0;" width="299" x="425.125" y="447.8396"/><text fill="#000000" font-family="sans-serif" font-size="14" font-weight="bold" lengthAdjust="spacing" textLength="148" x="435.125" y="472.8055">Fetch StudentHistory</text><text fill="#000000" font-family="sans-serif" font-size="14" font-weight="bold" lengthAdjust="spacing" textLength="279" x="435.125" y="491.8734">{org, sessionCode, subject, department}</text><rect fill="#F1F1F1" height="39.0679" rx="12.5" ry="12.5" style="stroke:#181818;stroke-width:2.0;" width="263" x="443.125" y="577.5094"/><text fill="#000000" font-family="sans-serif" font-size="14" font-weight="bold" lengthAdjust="spacing" textLength="243" x="453.125" y="602.4753">Throw "Student history not found"</text><ellipse cx="574.625" cy="653.5433" fill="none" rx="11" ry="11" style="stroke:#222222;stroke-width:1.0;"/><ellipse cx="574.625" cy="653.5433" fill="#222222" rx="6" ry="6" style="stroke:#222222;stroke-width:1.0;"/><polygon fill="#F1F1F1" points="521.625,525.9754,627.625,525.9754,639.625,537.9754,627.625,549.9754,521.625,549.9754,509.625,537.9754,521.625,525.9754" style="stroke:#181818;stroke-width:2.0;"/><text fill="#000000" font-family="sans-serif" font-size="14" lengthAdjust="spacing" textLength="19" x="578.625" y="564.9414">No</text><text fill="#000000" font-family="sans-serif" font-size="14" font-weight="bold" lengthAdjust="spacing" textLength="106" x="521.625" y="543.4074">History Found?</text><text fill="#000000" font-family="sans-serif" font-size="14" lengthAdjust="spacing" textLength="23" x="639.625" y="533.8734">Yes</text><rect fill="#F1F1F1" height="58.1358" rx="12.5" ry="12.5" style="stroke:#181818;stroke-width:2.0;" width="347" x="401.125" y="758.0773"/><text fill="#000000" font-family="sans-serif" font-size="14" font-weight="bold" lengthAdjust="spacing" textLength="165" x="411.125" y="783.0432">Push New History Entry</text><text fill="#000000" font-family="sans-serif" font-size="14" font-weight="bold" lengthAdjust="spacing" textLength="327" x="411.125" y="802.1111">{code, sessionKey, name, date, isMarked: false}</text><polygon fill="#F1F1F1" points="478.625,706.5433,670.625,706.5433,682.625,718.5433,670.625,730.5433,478.625,730.5433,466.625,718.5433,478.625,706.5433" style="stroke:#181818;stroke-width:2.0;"/><text fill="#000000" font-family="sans-serif" font-size="14" lengthAdjust="spacing" textLength="19" x="578.625" y="745.5093">No</text><text fill="#000000" font-family="sans-serif" font-size="14" font-weight="bold" lengthAdjust="spacing" textLength="192" x="478.625" y="723.9753">userCode Found in History?</text><text fill="#000000" font-family="sans-serif" font-size="14" lengthAdjust="spacing" textLength="23" x="682.625" y="714.4414">Yes</text><polygon fill="#F1F1F1" points="574.625,836.2131,586.625,848.2131,574.625,860.2131,562.625,848.2131,574.625,836.2131" style="stroke:#181818;stroke-width:2.0;"/><rect fill="#F1F1F1" height="39.0679" rx="12.5" ry="12.5" style="stroke:#181818;stroke-width:2.0;" width="331" x="409.125" y="880.2131"/><text fill="#000000" font-family="sans-serif" font-size="14" font-weight="bold" lengthAdjust="spacing" textLength="311" x="419.125" y="905.1791">Re-fetch StudentHistory and Re-search Index</text><polygon fill="#F1F1F1" points="527.625,939.281,621.625,939.281,633.625,951.281,621.625,963.281,527.625,963.281,515.625,951.281,527.625,939.281" style="stroke:#181818;stroke-width:2.0;"/><text fill="#000000" font-family="sans-serif" font-size="14" font-weight="bold" lengthAdjust="spacing" textLength="94" x="527.625" y="956.713">Index Found?</text><text fill="#000000" font-family="sans-serif" font-size="14" lengthAdjust="spacing" textLength="23" x="492.625" y="947.1791">Yes</text><text fill="#000000" font-family="sans-serif" font-size="14" lengthAdjust="spacing" textLength="19" x="633.625" y="947.1791">No</text><polygon fill="#F1F1F1" points="247.75,973.281,374.75,973.281,386.75,985.281,374.75,997.281,247.75,997.281,235.75,985.281,247.75,973.281" style="stroke:#181818;stroke-width:2.0;"/><text fill="#000000" font-family="sans-serif" font-size="14" font-weight="bold" lengthAdjust="spacing" textLength="127" x="247.75" y="990.713">isMarked == false?</text><text fill="#000000" font-family="sans-serif" font-size="14" lengthAdjust="spacing" textLength="23" x="212.75" y="981.1791">Yes</text><text fill="#000000" font-family="sans-serif" font-size="14" lengthAdjust="spacing" textLength="19" x="386.75" y="981.1791">No</text><rect fill="#F1F1F1" height="39.0679" rx="12.5" ry="12.5" style="stroke:#181818;stroke-width:2.0;" width="285" x="11" y="1007.281"/><text fill="#000000" font-family="sans-serif" font-size="14" font-weight="bold" lengthAdjust="spacing" textLength="265" x="21" y="1032.247">Increment StudentSummary.attended</text><rect fill="#F1F1F1" height="39.0679" rx="12.5" ry="12.5" style="stroke:#181818;stroke-width:2.0;" width="256" x="25.5" y="1081.349"/><text fill="#000000" font-family="sans-serif" font-size="14" font-weight="bold" lengthAdjust="spacing" textLength="236" x="35.5" y="1106.3149">Set history[index].isMarked = true</text><rect fill="#F1F1F1" height="39.0679" rx="12.5" ry="12.5" style="stroke:#181818;stroke-width:2.0;" width="306" x="316" y="1007.281"/><text fill="#000000" font-family="sans-serif" font-size="14" font-weight="bold" lengthAdjust="spacing" textLength="286" x="326" y="1032.247">Return 400 "Attendance already marked"</text><ellipse cx="469" cy="1092.349" fill="none" rx="11" ry="11" style="stroke:#222222;stroke-width:1.0;"/><ellipse cx="469" cy="1092.349" fill="#222222" rx="6" ry="6" style="stroke:#222222;stroke-width:1.0;"/><rect fill="#F1F1F1" height="39.0679" rx="12.5" ry="12.5" style="stroke:#181818;stroke-width:2.0;" width="372" x="652" y="973.281"/><text fill="#000000" font-family="sans-serif" font-size="14" font-weight="bold" lengthAdjust="spacing" textLength="352" x="662" y="998.247">Throw "Failed to push student record into history"</text><ellipse cx="838" cy="1058.349" fill="none" rx="11" ry="11" style="stroke:#222222;stroke-width:1.0;"/><ellipse cx="838" cy="1058.349" fill="#222222" rx="6" ry="6" style="stroke:#222222;stroke-width:1.0;"/><ellipse cx="574.625" cy="1150.4169" fill="#F1F1F1" rx="10" ry="10" style="stroke:#181818;stroke-width:0.5;"/><path d="M574.7656,1146.3856 Q573.1563,1146.3856 572.2344,1147.4638 Q571.3125,1148.5419 571.3125,1150.4169 Q571.3125,1152.2763 572.1719,1153.37 Q573.0313,1154.4481 574.75,1154.4481 Q575.4063,1154.4481 576,1154.3388 Q576.5938,1154.2294 577.1406,1154.0575 L577.1406,1155.1513 Q576.5938,1155.3544 575.9844,1155.4481 Q575.3906,1155.5575 574.5781,1155.5575 Q573.0469,1155.5575 572.0156,1154.9325 Q571,1154.2919 570.4844,1153.1356 Q569.9844,1151.9794 569.9844,1150.4013 Q569.9844,1148.8856 570.5313,1147.745 Q571.0781,1146.5888 572.1563,1145.9325 Q573.2344,1145.2763 574.7813,1145.2763 Q576.3594,1145.2763 577.5313,1145.87 L577.0313,1146.9325 Q576.5781,1146.7294 576,1146.5575 Q575.4375,1146.3856 574.7656,1146.3856 Z " fill="#000000"/><line style="stroke:#181818;stroke-width:2.0;" x1="574.625" x2="574.625" y1="70.0679" y2="90.0679"/><polygon fill="#181818" points="570.625,80.0679,574.625,90.0679,578.625,80.0679,574.625,84.0679" style="stroke:#181818;stroke-width:1.0;"/><line style="stroke:#181818;stroke-width:2.0;" x1="574.625" x2="574.625" y1="129.1358" y2="149.1358"/><polygon fill="#181818" points="570.625,139.1358,574.625,149.1358,578.625,139.1358,574.625,143.1358" style="stroke:#181818;stroke-width:1.0;"/><line style="stroke:#181818;stroke-width:2.0;" x1="574.625" x2="574.625" y1="298.8056" y2="324.7717"/><polygon fill="#181818" points="570.625,314.7717,574.625,324.7717,578.625,314.7717,574.625,318.7717" style="stroke:#181818;stroke-width:1.0;"/><line style="stroke:#181818;stroke-width:2.0;" x1="574.625" x2="574.625" y1="232.2038" y2="259.7377"/><polygon fill="#181818" points="570.625,249.7377,574.625,259.7377,578.625,249.7377,574.625,253.7377" style="stroke:#181818;stroke-width:1.0;"/><line style="stroke:#181818;stroke-width:2.0;" x1="641.625" x2="693.625" y1="220.2038" y2="220.2038"/><polygon fill="#181818" points="689.625,294.7717,693.625,304.7717,697.625,294.7717,693.625,298.7717" style="stroke:#181818;stroke-width:2.0;"/><line style="stroke:#181818;stroke-width:2.0;" x1="693.625" x2="693.625" y1="220.2038" y2="368.7717"/><line style="stroke:#181818;stroke-width:2.0;" x1="693.625" x2="574.625" y1="368.7717" y2="368.7717"/><line style="stroke:#181818;stroke-width:2.0;" x1="574.625" x2="574.625" y1="368.7717" y2="388.7717"/><polygon fill="#181818" points="570.625,378.7717,574.625,388.7717,578.625,378.7717,574.625,382.7717" style="stroke:#181818;stroke-width:1.0;"/><line style="stroke:#181818;stroke-width:2.0;" x1="574.625" x2="574.625" y1="188.2038" y2="208.2038"/><polygon fill="#181818" points="570.625,198.2038,574.625,208.2038,578.625,198.2038,574.625,202.2038" style="stroke:#181818;stroke-width:1.0;"/><line style="stroke:#181818;stroke-width:2.0;" x1="574.625" x2="574.625" y1="427.8396" y2="447.8396"/><polygon fill="#181818" points="570.625,437.8396,574.625,447.8396,578.625,437.8396,574.625,441.8396" style="stroke:#181818;stroke-width:1.0;"/><line style="stroke:#181818;stroke-width:2.0;" x1="574.625" x2="574.625" y1="616.5773" y2="642.5433"/><polygon fill="#181818" points="570.625,632.5433,574.625,642.5433,578.625,632.5433,574.625,636.5433" style="stroke:#181818;stroke-width:1.0;"/><line style="stroke:#181818;stroke-width:2.0;" x1="574.625" x2="574.625" y1="549.9754" y2="577.5094"/><polygon fill="#181818" points="570.625,567.5094,574.625,577.5094,578.625,567.5094,574.625,571.5094" style="stroke:#181818;stroke-width:1.0;"/><line style="stroke:#181818;stroke-width:2.0;" x1="639.625" x2="716.125" y1="537.9754" y2="537.9754"/><polygon fill="#181818" points="712.125,612.5433,716.125,622.5433,720.125,612.5433,716.125,616.5433" style="stroke:#181818;stroke-width:2.0;"/><line style="stroke:#181818;stroke-width:2.0;" x1="716.125" x2="716.125" y1="537.9754" y2="686.5433"/><line style="stroke:#181818;stroke-width:2.0;" x1="716.125" x2="574.625" y1="686.5433" y2="686.5433"/><line style="stroke:#181818;stroke-width:2.0;" x1="574.625" x2="574.625" y1="686.5433" y2="706.5433"/><polygon fill="#181818" points="570.625,696.5433,574.625,706.5433,578.625,696.5433,574.625,700.5433" style="stroke:#181818;stroke-width:1.0;"/><line style="stroke:#181818;stroke-width:2.0;" x1="574.625" x2="574.625" y1="505.9754" y2="525.9754"/><polygon fill="#181818" points="570.625,515.9754,574.625,525.9754,578.625,515.9754,574.625,519.9754" style="stroke:#181818;stroke-width:1.0;"/><line style="stroke:#181818;stroke-width:2.0;" x1="574.625" x2="574.625" y1="730.5433" y2="758.0773"/><polygon fill="#181818" points="570.625,748.0773,574.625,758.0773,578.625,748.0773,574.625,752.0773" style="stroke:#181818;stroke-width:1.0;"/><line style="stroke:#181818;stroke-width:2.0;" x1="682.625" x2="758.125" y1="718.5433" y2="718.5433"/><polygon fill="#181818" points="754.125,777.1452,758.125,787.1452,762.125,777.1452,758.125,781.1452" style="stroke:#181818;stroke-width:2.0;"/><line style="stroke:#181818;stroke-width:2.0;" x1="758.125" x2="758.125" y1="718.5433" y2="848.2131"/><line style="stroke:#181818;stroke-width:2.0;" x1="758.125" x2="586.625" y1="848.2131" y2="848.2131"/><polygon fill="#181818" points="596.625,844.2131,586.625,848.2131,596.625,852.2131,592.625,848.2131" style="stroke:#181818;stroke-width:1.0;"/><line style="stroke:#181818;stroke-width:2.0;" x1="574.625" x2="574.625" y1="816.2131" y2="836.2131"/><polygon fill="#181818" points="570.625,826.2131,574.625,836.2131,578.625,826.2131,574.625,830.2131" style="stroke:#181818;stroke-width:1.0;"/><line style="stroke:#181818;stroke-width:2.0;" x1="574.625" x2="574.625" y1="860.2131" y2="880.2131"/><polygon fill="#181818" points="570.625,870.2131,574.625,880.2131,578.625,870.2131,574.625,874.2131" style="stroke:#181818;stroke-width:1.0;"/><line style="stroke:#181818;stroke-width:2.0;" x1="153.5" x2="153.5" y1="1046.349" y2="1081.349"/><polygon fill="#181818" points="149.5,1071.349,153.5,1081.349,157.5,1071.349,153.5,1075.349" style="stroke:#181818;stroke-width:1.0;"/><line style="stroke:#181818;stroke-width:2.0;" x1="469" x2="469" y1="1046.349" y2="1081.349"/><polygon fill="#181818" points="465,1071.349,469,1081.349,473,1071.349,469,1075.349" style="stroke:#181818;stroke-width:1.0;"/><line style="stroke:#181818;stroke-width:2.0;" x1="235.75" x2="153.5" y1="985.281" y2="985.281"/><line style="stroke:#181818;stroke-width:2.0;" x1="153.5" x2="153.5" y1="985.281" y2="1007.281"/><polygon fill="#181818" points="149.5,997.281,153.5,1007.281,157.5,997.281,153.5,1001.281" style="stroke:#181818;stroke-width:1.0;"/><line style="stroke:#181818;stroke-width:2.0;" x1="386.75" x2="469" y1="985.281" y2="985.281"/><line style="stroke:#181818;stroke-width:2.0;" x1="469" x2="469" y1="985.281" y2="1007.281"/><polygon fill="#181818" points="465,997.281,469,1007.281,473,997.281,469,1001.281" style="stroke:#181818;stroke-width:1.0;"/><line style="stroke:#181818;stroke-width:2.0;" x1="153.5" x2="153.5" y1="1120.4169" y2="1125.4169"/><line style="stroke:#181818;stroke-width:2.0;" x1="153.5" x2="574.625" y1="1125.4169" y2="1125.4169"/><line style="stroke:#181818;stroke-width:2.0;" x1="574.625" x2="574.625" y1="1125.4169" y2="1140.4169"/><polygon fill="#181818" points="570.625,1130.4169,574.625,1140.4169,578.625,1130.4169,574.625,1134.4169" style="stroke:#181818;stroke-width:1.0;"/><line style="stroke:#181818;stroke-width:2.0;" x1="838" x2="838" y1="1012.349" y2="1047.349"/><polygon fill="#181818" points="834,1037.349,838,1047.349,842,1037.349,838,1041.349" style="stroke:#181818;stroke-width:1.0;"/><line style="stroke:#181818;stroke-width:2.0;" x1="515.625" x2="311.25" y1="951.281" y2="951.281"/><line style="stroke:#181818;stroke-width:2.0;" x1="311.25" x2="311.25" y1="951.281" y2="973.281"/><polygon fill="#181818" points="307.25,963.281,311.25,973.281,315.25,963.281,311.25,967.281" style="stroke:#181818;stroke-width:1.0;"/><line style="stroke:#181818;stroke-width:2.0;" x1="633.625" x2="838" y1="951.281" y2="951.281"/><line style="stroke:#181818;stroke-width:2.0;" x1="838" x2="838" y1="951.281" y2="973.281"/><polygon fill="#181818" points="834,963.281,838,973.281,842,963.281,838,967.281" style="stroke:#181818;stroke-width:1.0;"/><line style="stroke:#181818;stroke-width:2.0;" x1="574.625" x2="574.625" y1="919.281" y2="939.281"/><polygon fill="#181818" points="570.625,929.281,574.625,939.281,578.625,929.281,574.625,933.281" style="stroke:#181818;stroke-width:1.0;"/><!--SRC=[ZLF1RjGm4BtxAqOv9TAoBMXFfIrg5nOgH8MQSa30mHjFDgQElR8dNGBYtvd4IPj25xX4YkVDc_VUsE56swtqieQNMCh6qCfPolLtXASB4UwAPzwxtNMbYnkB8S2pQQaWVQkfFNTUePzYI9D1E5wVvjGej0HdH6YLj0N2E-cPOGChutR71-jJ8TBpJ8WZHbzXSEQM8KwXWJGlAkVCI740IsSCRd0uoBhcvttV2gceO0IkMsW2-YMJH8ZG9QGJCIlNMFMYgsL05Lf8FsB819g0a5wwJ014DTHu2ul31IGVc12i8oYxtYJo0WHoMy76T1aDl4O2vpTGUbVt8kRyjqVd6ytTlksgdoqNVp1q1e43rCvsulcdMN_5WcQWa1Edchj-FhGqaFolfUkAbmd964GrTF_Ts31gp3JE0crX6FxliU-RKC4bxiOEU6Lfwho8RgFrjzZEmCgQJvGa_khGNHbKHr1A9XuIcAH-XK_AHv85oJAv5b1wBbvOXTyUfjSVxSkEjG-mKG2Sd4G9Vu81ejCBMtZizZHgoPkwbhwTo_u1e1e3Zl0SxvRmINTYliplXm7v1aVyDDBVhkSX99Fd9Or7gLgeUvRaVbw_KYQAkUsv6Ikf3Syc1zjkPs6uA1uBVkEySouCUX-zAkao4mf95fNu1G00]--></g></svg>