<?xml version="1.0" encoding="us-ascii" standalone="no"?><svg xmlns="http://www.w3.org/2000/svg" xmlns:xlink="http://www.w3.org/1999/xlink" contentStyleType="text/css" height="1049px" preserveAspectRatio="none" style="width:1214px;height:1049px;background:#FFFFFF;" version="1.1" viewBox="0 0 1214 1049" width="1214px" zoomAndPan="magnify"><defs/><g><text fill="#000000" font-family="sans-serif" font-size="14" font-weight="bold" lengthAdjust="spacing" textLength="271" x="470" y="34.9659">Employee Attendance Session Creation</text><ellipse cx="633.75" cy="60.0679" fill="#222222" rx="10" ry="10" style="stroke:#222222;stroke-width:1.0;"/><rect fill="#F1F1F1" height="39.0679" rx="12.5" ry="12.5" style="stroke:#181818;stroke-width:2.0;" width="109" x="579.25" y="90.0679"/><text fill="#000000" font-family="sans-serif" font-size="14" font-weight="bold" lengthAdjust="spacing" textLength="89" x="589.25" y="115.0339">Admin Login</text><rect fill="#F1F1F1" height="39.0679" rx="12.5" ry="12.5" style="stroke:#181818;stroke-width:2.0;" width="161" x="553.25" y="149.1358"/><text fill="#000000" font-family="sans-serif" font-size="14" font-weight="bold" lengthAdjust="spacing" textLength="141" x="563.25" y="174.1018">Click "Start Session"</text><rect fill="#F1F1F1" height="39.0679" rx="12.5" ry="12.5" style="stroke:#181818;stroke-width:2.0;" width="220" x="523.75" y="208.2038"/><text fill="#000000" font-family="sans-serif" font-size="14" font-weight="bold" lengthAdjust="spacing" textLength="200" x="533.75" y="233.1697">Select Shift and Session Type</text><rect fill="#F1F1F1" height="39.0679" rx="12.5" ry="12.5" style="stroke:#181818;stroke-width:2.0;" width="111" x="578.25" y="267.2717"/><text fill="#000000" font-family="sans-serif" font-size="14" font-weight="bold" lengthAdjust="spacing" textLength="91" x="588.25" y="292.2376">Submit Form</text><rect fill="#F1F1F1" height="39.0679" rx="12.5" ry="12.5" style="stroke:#181818;stroke-width:2.0;" width="190" x="538.75" y="326.3396"/><text fill="#000000" font-family="sans-serif" font-size="14" font-weight="bold" lengthAdjust="spacing" textLength="170" x="548.75" y="351.3055">Receive {org, shift, type}</text><polygon fill="#F1F1F1" points="585.75,385.4075,681.75,385.4075,693.75,397.4075,681.75,409.4075,585.75,409.4075,573.75,397.4075,585.75,385.4075" style="stroke:#181818;stroke-width:2.0;"/><text fill="#000000" font-family="sans-serif" font-size="14" font-weight="bold" lengthAdjust="spacing" textLength="96" x="585.75" y="402.8395">Session Type?</text><text fill="#000000" font-family="sans-serif" font-size="14" lengthAdjust="spacing" textLength="59" x="514.75" y="393.3055">Check-In</text><text fill="#000000" font-family="sans-serif" font-size="14" lengthAdjust="spacing" textLength="70" x="693.75" y="393.3055">Check-Out</text><rect fill="#F1F1F1" height="39.0679" rx="12.5" ry="12.5" style="stroke:#181818;stroke-width:2.0;" width="224" x="168.25" y="419.4075"/><text fill="#000000" font-family="sans-serif" font-size="14" font-weight="bold" lengthAdjust="spacing" textLength="204" x="178.25" y="444.3734">Check Existing Active Session</text><polygon fill="#F1F1F1" points="205.25,478.4754,355.25,478.4754,367.25,490.4754,355.25,502.4754,205.25,502.4754,193.25,490.4754,205.25,478.4754" style="stroke:#181818;stroke-width:2.0;"/><text fill="#000000" font-family="sans-serif" font-size="14" font-weight="bold" lengthAdjust="spacing" textLength="150" x="205.25" y="495.9074">Active Session Exists?</text><text fill="#000000" font-family="sans-serif" font-size="14" lengthAdjust="spacing" textLength="23" x="170.25" y="486.3734">Yes</text><text fill="#000000" font-family="sans-serif" font-size="14" lengthAdjust="spacing" textLength="19" x="367.25" y="486.3734">No</text><rect fill="#F1F1F1" height="39.0679" rx="12.5" ry="12.5" style="stroke:#181818;stroke-width:2.0;" width="173" x="11" y="512.4754"/><text fill="#000000" font-family="sans-serif" font-size="14" font-weight="bold" lengthAdjust="spacing" textLength="153" x="21" y="537.4414">Display Error Message</text><ellipse cx="97.5" cy="597.5433" fill="none" rx="11" ry="11" style="stroke:#222222;stroke-width:1.0;"/><ellipse cx="97.5" cy="597.5433" fill="#222222" rx="6" ry="6" style="stroke:#222222;stroke-width:1.0;"/><rect fill="#F1F1F1" height="39.0679" rx="12.5" ry="12.5" style="stroke:#181818;stroke-width:2.0;" width="237" x="344.5" y="512.4754"/><text fill="#000000" font-family="sans-serif" font-size="14" font-weight="bold" lengthAdjust="spacing" textLength="217" x="354.5" y="537.4414">Retrieve Organization Schedule</text><rect fill="#F1F1F1" height="39.0679" rx="12.5" ry="12.5" style="stroke:#181818;stroke-width:2.0;" width="168" x="379" y="586.5433"/><text fill="#000000" font-family="sans-serif" font-size="14" font-weight="bold" lengthAdjust="spacing" textLength="148" x="389" y="611.5093">Calculate Expiry Time</text><rect fill="#F1F1F1" height="39.0679" rx="12.5" ry="12.5" style="stroke:#181818;stroke-width:2.0;" width="178" x="374" y="660.6113"/><text fill="#000000" font-family="sans-serif" font-size="14" font-weight="bold" lengthAdjust="spacing" textLength="158" x="384" y="685.5772">Generate Session Code</text><rect fill="#F1F1F1" height="39.0679" rx="12.5" ry="12.5" style="stroke:#181818;stroke-width:2.0;" width="168" x="379" y="734.6792"/><text fill="#000000" font-family="sans-serif" font-size="14" font-weight="bold" lengthAdjust="spacing" textLength="148" x="389" y="759.6451">Create Active Session</text><rect fill="#F1F1F1" height="39.0679" rx="12.5" ry="12.5" style="stroke:#181818;stroke-width:2.0;" width="226" x="350" y="805.6792"/><text fill="#000000" font-family="sans-serif" font-size="14" font-weight="bold" lengthAdjust="spacing" textLength="206" x="360" y="830.6451">Update Attendance Summary</text><rect fill="#F1F1F1" height="39.0679" rx="12.5" ry="12.5" style="stroke:#181818;stroke-width:2.0;" width="206" x="360" y="864.7471"/><text fill="#000000" font-family="sans-serif" font-size="14" font-weight="bold" lengthAdjust="spacing" textLength="186" x="370" y="889.713">Create Session History Log</text><polygon fill="#F1F1F1" points="381.5,923.815,544.5,923.815,556.5,935.815,544.5,947.815,381.5,947.815,369.5,935.815,381.5,923.815" style="stroke:#181818;stroke-width:2.0;"/><text fill="#000000" font-family="sans-serif" font-size="14" font-weight="bold" lengthAdjust="spacing" textLength="163" x="381.5" y="941.247">Transaction Successful?</text><text fill="#000000" font-family="sans-serif" font-size="14" lengthAdjust="spacing" textLength="23" x="346.5" y="931.713">Yes</text><text fill="#000000" font-family="sans-serif" font-size="14" lengthAdjust="spacing" textLength="19" x="556.5" y="931.713">No</text><rect fill="#F1F1F1" height="39.0679" rx="12.5" ry="12.5" style="stroke:#181818;stroke-width:2.0;" width="261" x="214" y="957.815"/><text fill="#000000" font-family="sans-serif" font-size="14" font-weight="bold" lengthAdjust="spacing" textLength="241" x="224" y="982.7809">Open Attendance Capture Window</text><ellipse cx="344.5" cy="1027.8829" fill="none" rx="11" ry="11" style="stroke:#222222;stroke-width:1.0;"/><ellipse cx="344.5" cy="1027.8829" fill="#222222" rx="6" ry="6" style="stroke:#222222;stroke-width:1.0;"/><rect fill="#F1F1F1" height="39.0679" rx="12.5" ry="12.5" style="stroke:#181818;stroke-width:2.0;" width="173" x="495" y="957.815"/><text fill="#000000" font-family="sans-serif" font-size="14" font-weight="bold" lengthAdjust="spacing" textLength="153" x="505" y="982.7809">Display Error Message</text><ellipse cx="581.5" cy="1027.8829" fill="none" rx="11" ry="11" style="stroke:#222222;stroke-width:1.0;"/><ellipse cx="581.5" cy="1027.8829" fill="#222222" rx="6" ry="6" style="stroke:#222222;stroke-width:1.0;"/><rect fill="#F1F1F1" height="39.0679" rx="12.5" ry="12.5" style="stroke:#181818;stroke-width:2.0;" width="180" x="897.25" y="419.4075"/><text fill="#000000" font-family="sans-serif" font-size="14" font-weight="bold" lengthAdjust="spacing" textLength="160" x="907.25" y="444.3734">Retrieve Active Session</text><polygon fill="#F1F1F1" points="910.25,478.4754,1064.25,478.4754,1076.25,490.4754,1064.25,502.4754,910.25,502.4754,898.25,490.4754,910.25,478.4754" style="stroke:#181818;stroke-width:2.0;"/><text fill="#000000" font-family="sans-serif" font-size="14" font-weight="bold" lengthAdjust="spacing" textLength="154" x="910.25" y="495.9074">Active Session Found?</text><text fill="#000000" font-family="sans-serif" font-size="14" lengthAdjust="spacing" textLength="23" x="875.25" y="486.3734">Yes</text><text fill="#000000" font-family="sans-serif" font-size="14" lengthAdjust="spacing" textLength="19" x="1076.25" y="486.3734">No</text><rect fill="#F1F1F1" height="39.0679" rx="12.5" ry="12.5" style="stroke:#181818;stroke-width:2.0;" width="260" x="728" y="564.0094"/><text fill="#000000" font-family="sans-serif" font-size="14" font-weight="bold" lengthAdjust="spacing" textLength="240" x="738" y="588.9753">Update Session Type to Check-Out</text><polygon fill="#F1F1F1" points="771,512.4754,945,512.4754,957,524.4754,945,536.4754,771,536.4754,759,524.4754,771,512.4754" style="stroke:#181818;stroke-width:2.0;"/><text fill="#000000" font-family="sans-serif" font-size="14" lengthAdjust="spacing" textLength="23" x="862" y="551.4414">Yes</text><text fill="#000000" font-family="sans-serif" font-size="14" font-weight="bold" lengthAdjust="spacing" textLength="174" x="771" y="529.9074">Current Type = Check-In?</text><polygon fill="#F1F1F1" points="858,630.6113,870,642.6113,858,654.6113,846,642.6113,858,630.6113" style="stroke:#181818;stroke-width:2.0;"/><rect fill="#F1F1F1" height="39.0679" rx="12.5" ry="12.5" style="stroke:#181818;stroke-width:2.0;" width="261" x="727.5" y="689.6113"/><text fill="#000000" font-family="sans-serif" font-size="14" font-weight="bold" lengthAdjust="spacing" textLength="241" x="737.5" y="714.5772">Open Attendance Capture Window</text><ellipse cx="858" cy="774.6792" fill="none" rx="11" ry="11" style="stroke:#222222;stroke-width:1.0;"/><ellipse cx="858" cy="774.6792" fill="#222222" rx="6" ry="6" style="stroke:#222222;stroke-width:1.0;"/><rect fill="#F1F1F1" height="39.0679" rx="12.5" ry="12.5" style="stroke:#181818;stroke-width:2.0;" width="173" x="1030" y="512.4754"/><text fill="#000000" font-family="sans-serif" font-size="14" font-weight="bold" lengthAdjust="spacing" textLength="153" x="1040" y="537.4414">Display Error Message</text><ellipse cx="1116.5" cy="597.5433" fill="none" rx="11" ry="11" style="stroke:#222222;stroke-width:1.0;"/><ellipse cx="1116.5" cy="597.5433" fill="#222222" rx="6" ry="6" style="stroke:#222222;stroke-width:1.0;"/><line style="stroke:#181818;stroke-width:2.0;" x1="633.75" x2="633.75" y1="70.0679" y2="90.0679"/><polygon fill="#181818" points="629.75,80.0679,633.75,90.0679,637.75,80.0679,633.75,84.0679" style="stroke:#181818;stroke-width:1.0;"/><line style="stroke:#181818;stroke-width:2.0;" x1="633.75" x2="633.75" y1="129.1358" y2="149.1358"/><polygon fill="#181818" points="629.75,139.1358,633.75,149.1358,637.75,139.1358,633.75,143.1358" style="stroke:#181818;stroke-width:1.0;"/><line style="stroke:#181818;stroke-width:2.0;" x1="633.75" x2="633.75" y1="188.2038" y2="208.2038"/><polygon fill="#181818" points="629.75,198.2038,633.75,208.2038,637.75,198.2038,633.75,202.2038" style="stroke:#181818;stroke-width:1.0;"/><line style="stroke:#181818;stroke-width:2.0;" x1="633.75" x2="633.75" y1="247.2717" y2="267.2717"/><polygon fill="#181818" points="629.75,257.2717,633.75,267.2717,637.75,257.2717,633.75,261.2717" style="stroke:#181818;stroke-width:1.0;"/><line style="stroke:#181818;stroke-width:2.0;" x1="633.75" x2="633.75" y1="306.3396" y2="326.3396"/><polygon fill="#181818" points="629.75,316.3396,633.75,326.3396,637.75,316.3396,633.75,320.3396" style="stroke:#181818;stroke-width:1.0;"/><line style="stroke:#181818;stroke-width:2.0;" x1="97.5" x2="97.5" y1="551.5433" y2="586.5433"/><polygon fill="#181818" points="93.5,576.5433,97.5,586.5433,101.5,576.5433,97.5,580.5433" style="stroke:#181818;stroke-width:1.0;"/><line style="stroke:#181818;stroke-width:2.0;" x1="463" x2="463" y1="551.5433" y2="586.5433"/><polygon fill="#181818" points="459,576.5433,463,586.5433,467,576.5433,463,580.5433" style="stroke:#181818;stroke-width:1.0;"/><line style="stroke:#181818;stroke-width:2.0;" x1="463" x2="463" y1="625.6113" y2="660.6113"/><polygon fill="#181818" points="459,650.6113,463,660.6113,467,650.6113,463,654.6113" style="stroke:#181818;stroke-width:1.0;"/><line style="stroke:#181818;stroke-width:2.0;" x1="463" x2="463" y1="699.6792" y2="734.6792"/><polygon fill="#181818" points="459,724.6792,463,734.6792,467,724.6792,463,728.6792" style="stroke:#181818;stroke-width:1.0;"/><line style="stroke:#181818;stroke-width:2.0;" x1="463" x2="463" y1="773.7471" y2="805.6792"/><polygon fill="#181818" points="459,795.6792,463,805.6792,467,795.6792,463,799.6792" style="stroke:#181818;stroke-width:1.0;"/><line style="stroke:#181818;stroke-width:2.0;" x1="463" x2="463" y1="844.7471" y2="864.7471"/><polygon fill="#181818" points="459,854.7471,463,864.7471,467,854.7471,463,858.7471" style="stroke:#181818;stroke-width:1.0;"/><line style="stroke:#181818;stroke-width:2.0;" x1="344.5" x2="344.5" y1="996.8829" y2="1016.8829"/><polygon fill="#181818" points="340.5,1006.8829,344.5,1016.8829,348.5,1006.8829,344.5,1010.8829" style="stroke:#181818;stroke-width:1.0;"/><line style="stroke:#181818;stroke-width:2.0;" x1="581.5" x2="581.5" y1="996.8829" y2="1016.8829"/><polygon fill="#181818" points="577.5,1006.8829,581.5,1016.8829,585.5,1006.8829,581.5,1010.8829" style="stroke:#181818;stroke-width:1.0;"/><line style="stroke:#181818;stroke-width:2.0;" x1="369.5" x2="344.5" y1="935.815" y2="935.815"/><line style="stroke:#181818;stroke-width:2.0;" x1="344.5" x2="344.5" y1="935.815" y2="957.815"/><polygon fill="#181818" points="340.5,947.815,344.5,957.815,348.5,947.815,344.5,951.815" style="stroke:#181818;stroke-width:1.0;"/><line style="stroke:#181818;stroke-width:2.0;" x1="556.5" x2="581.5" y1="935.815" y2="935.815"/><line style="stroke:#181818;stroke-width:2.0;" x1="581.5" x2="581.5" y1="935.815" y2="957.815"/><polygon fill="#181818" points="577.5,947.815,581.5,957.815,585.5,947.815,581.5,951.815" style="stroke:#181818;stroke-width:1.0;"/><line style="stroke:#181818;stroke-width:2.0;" x1="463" x2="463" y1="903.815" y2="923.815"/><polygon fill="#181818" points="459,913.815,463,923.815,467,913.815,463,917.815" style="stroke:#181818;stroke-width:1.0;"/><line style="stroke:#181818;stroke-width:2.0;" x1="193.25" x2="97.5" y1="490.4754" y2="490.4754"/><line style="stroke:#181818;stroke-width:2.0;" x1="97.5" x2="97.5" y1="490.4754" y2="512.4754"/><polygon fill="#181818" points="93.5,502.4754,97.5,512.4754,101.5,502.4754,97.5,506.4754" style="stroke:#181818;stroke-width:1.0;"/><line style="stroke:#181818;stroke-width:2.0;" x1="367.25" x2="463" y1="490.4754" y2="490.4754"/><line style="stroke:#181818;stroke-width:2.0;" x1="463" x2="463" y1="490.4754" y2="512.4754"/><polygon fill="#181818" points="459,502.4754,463,512.4754,467,502.4754,463,506.4754" style="stroke:#181818;stroke-width:1.0;"/><line style="stroke:#181818;stroke-width:2.0;" x1="280.25" x2="280.25" y1="458.4754" y2="478.4754"/><polygon fill="#181818" points="276.25,468.4754,280.25,478.4754,284.25,468.4754,280.25,472.4754" style="stroke:#181818;stroke-width:1.0;"/><line style="stroke:#181818;stroke-width:2.0;" x1="858" x2="858" y1="536.4754" y2="564.0094"/><polygon fill="#181818" points="854,554.0094,858,564.0094,862,554.0094,858,558.0094" style="stroke:#181818;stroke-width:1.0;"/><line style="stroke:#181818;stroke-width:2.0;" x1="957" x2="998" y1="524.4754" y2="524.4754"/><polygon fill="#181818" points="994,573.5433,998,583.5433,1002,573.5433,998,577.5433" style="stroke:#181818;stroke-width:2.0;"/><line style="stroke:#181818;stroke-width:2.0;" x1="998" x2="998" y1="524.4754" y2="642.6113"/><line style="stroke:#181818;stroke-width:2.0;" x1="998" x2="870" y1="642.6113" y2="642.6113"/><polygon fill="#181818" points="880,638.6113,870,642.6113,880,646.6113,876,642.6113" style="stroke:#181818;stroke-width:1.0;"/><line style="stroke:#181818;stroke-width:2.0;" x1="858" x2="858" y1="603.0773" y2="630.6113"/><polygon fill="#181818" points="854,620.6113,858,630.6113,862,620.6113,858,624.6113" style="stroke:#181818;stroke-width:1.0;"/><line style="stroke:#181818;stroke-width:2.0;" x1="858" x2="858" y1="654.6113" y2="689.6113"/><polygon fill="#181818" points="854,679.6113,858,689.6113,862,679.6113,858,683.6113" style="stroke:#181818;stroke-width:1.0;"/><line style="stroke:#181818;stroke-width:2.0;" x1="858" x2="858" y1="728.6792" y2="763.6792"/><polygon fill="#181818" points="854,753.6792,858,763.6792,862,753.6792,858,757.6792" style="stroke:#181818;stroke-width:1.0;"/><line style="stroke:#181818;stroke-width:2.0;" x1="1116.5" x2="1116.5" y1="551.5433" y2="586.5433"/><polygon fill="#181818" points="1112.5,576.5433,1116.5,586.5433,1120.5,576.5433,1116.5,580.5433" style="stroke:#181818;stroke-width:1.0;"/><line style="stroke:#181818;stroke-width:2.0;" x1="898.25" x2="858" y1="490.4754" y2="490.4754"/><line style="stroke:#181818;stroke-width:2.0;" x1="858" x2="858" y1="490.4754" y2="512.4754"/><polygon fill="#181818" points="854,502.4754,858,512.4754,862,502.4754,858,506.4754" style="stroke:#181818;stroke-width:1.0;"/><line style="stroke:#181818;stroke-width:2.0;" x1="1076.25" x2="1116.5" y1="490.4754" y2="490.4754"/><line style="stroke:#181818;stroke-width:2.0;" x1="1116.5" x2="1116.5" y1="490.4754" y2="512.4754"/><polygon fill="#181818" points="1112.5,502.4754,1116.5,512.4754,1120.5,502.4754,1116.5,506.4754" style="stroke:#181818;stroke-width:1.0;"/><line style="stroke:#181818;stroke-width:2.0;" x1="987.25" x2="987.25" y1="458.4754" y2="478.4754"/><polygon fill="#181818" points="983.25,468.4754,987.25,478.4754,991.25,468.4754,987.25,472.4754" style="stroke:#181818;stroke-width:1.0;"/><line style="stroke:#181818;stroke-width:2.0;" x1="573.75" x2="280.25" y1="397.4075" y2="397.4075"/><line style="stroke:#181818;stroke-width:2.0;" x1="280.25" x2="280.25" y1="397.4075" y2="419.4075"/><polygon fill="#181818" points="276.25,409.4075,280.25,419.4075,284.25,409.4075,280.25,413.4075" style="stroke:#181818;stroke-width:1.0;"/><line style="stroke:#181818;stroke-width:2.0;" x1="693.75" x2="987.25" y1="397.4075" y2="397.4075"/><line style="stroke:#181818;stroke-width:2.0;" x1="987.25" x2="987.25" y1="397.4075" y2="419.4075"/><polygon fill="#181818" points="983.25,409.4075,987.25,419.4075,991.25,409.4075,987.25,413.4075" style="stroke:#181818;stroke-width:1.0;"/><line style="stroke:#181818;stroke-width:2.0;" x1="633.75" x2="633.75" y1="365.4075" y2="385.4075"/><polygon fill="#181818" points="629.75,375.4075,633.75,385.4075,637.75,375.4075,633.75,379.4075" style="stroke:#181818;stroke-width:1.0;"/><!--SRC=[bL9DRzim3BtxLn0z9K27eSDEMzSXTPDjmBO0TOPXHqMcRIAoP4XKEtVOVv_yxGRfq9uaa8-FvEDp1zALiAA46yo4LxmncXDwGBXu6xankRBMtEyAaWUDpi6RUKeotH7NryQcQESO9bO8b_khTLafKoF2YXbrAhH4I0A6Z8ROek3mkNozlueYny9o5BqBHQkq90rVJKvjxdqRZ5MWXxEaWGqKPrCwGOKo90hA68HEnowxki8PpEzBOjWOMqx1MvH8TmX_ZCtFmJKKvy2Xxc-7YIY3HTjZelpOf9R01MfOn0NAmwilUXb50EsmJG3MlyanwRmJQboy8mNeMHydkoBtYFuNkcN0TzGtv2ebQbY7krZu5gf4ZWCbW6DJXGygXx3uRgQwMsHB61fjRIuqFRJIGo8BJBsQ4RJZ2oMz4enXcefi3JigZo2VKADj4ECrJNhCqjmNdrY-W_oeqXOoCuSlIs7haqn3gyz18HEc2Wxf3zG0UpbtLcWdPBUTbpBKP5wTrhDZtrOXE1iX5XLxY_2JT6hkfqb6SO_bVTPXvjKwfImQtgWZwpoqzJoQQBpOI-opCLwdfxVj2s9lBMfkNGmVOF3k_nJgppJtFx21SUHfos6rbodxf6cVQVPUn_Rv1m00]--></g></svg>