<?xml version="1.0" encoding="us-ascii" standalone="no"?><svg xmlns="http://www.w3.org/2000/svg" xmlns:xlink="http://www.w3.org/1999/xlink" contentStyleType="text/css" height="1290px" preserveAspectRatio="none" style="width:653px;height:1290px;background:#FFFFFF;" version="1.1" viewBox="0 0 653 1290" width="653px" zoomAndPan="magnify"><defs/><g><text fill="#000000" font-family="sans-serif" font-size="14" font-weight="bold" lengthAdjust="spacing" textLength="258" x="196" y="34.9659">Student Attendance Session Creation</text><ellipse cx="283.75" cy="60.0679" fill="#222222" rx="10" ry="10" style="stroke:#222222;stroke-width:1.0;"/><rect fill="#F1F1F1" height="39.0679" rx="12.5" ry="12.5" style="stroke:#181818;stroke-width:2.0;" width="117" x="225.25" y="90.0679"/><text fill="#000000" font-family="sans-serif" font-size="14" font-weight="bold" lengthAdjust="spacing" textLength="97" x="235.25" y="115.0339">Teacher Login</text><rect fill="#F1F1F1" height="39.0679" rx="12.5" ry="12.5" style="stroke:#181818;stroke-width:2.0;" width="161" x="203.25" y="149.1358"/><text fill="#000000" font-family="sans-serif" font-size="14" font-weight="bold" lengthAdjust="spacing" textLength="141" x="213.25" y="174.1018">Click "Start Session"</text><rect fill="#F1F1F1" height="58.1358" rx="12.5" ry="12.5" style="stroke:#181818;stroke-width:2.0;" width="215" x="176.25" y="208.2038"/><text fill="#000000" font-family="sans-serif" font-size="14" font-weight="bold" lengthAdjust="spacing" textLength="139" x="186.25" y="233.1697">Select Organization,</text><text fill="#000000" font-family="sans-serif" font-size="14" lengthAdjust="spacing" textLength="195" x="186.25" y="252.2376">Department and Subject&lt;/b&gt;</text><rect fill="#F1F1F1" height="39.0679" rx="12.5" ry="12.5" style="stroke:#181818;stroke-width:2.0;" width="111" x="228.25" y="286.3396"/><text fill="#000000" font-family="sans-serif" font-size="14" font-weight="bold" lengthAdjust="spacing" textLength="91" x="238.25" y="311.3055">Submit Form</text><rect fill="#F1F1F1" height="39.0679" rx="12.5" ry="12.5" style="stroke:#181818;stroke-width:2.0;" width="179" x="194.25" y="345.4075"/><text fill="#000000" font-family="sans-serif" font-size="14" font-weight="bold" lengthAdjust="spacing" textLength="159" x="204.25" y="370.3734">Receive Session Details</text><rect fill="#F1F1F1" height="39.0679" rx="12.5" ry="12.5" style="stroke:#181818;stroke-width:2.0;" width="148" x="209.75" y="404.4754"/><text fill="#000000" font-family="sans-serif" font-size="14" font-weight="bold" lengthAdjust="spacing" textLength="128" x="219.75" y="429.4414">Determine Subject</text><polygon fill="#F1F1F1" points="221.25,463.5433,346.25,463.5433,358.25,475.5433,346.25,487.5433,221.25,487.5433,209.25,475.5433,221.25,463.5433" style="stroke:#181818;stroke-width:2.0;"/><text fill="#000000" font-family="sans-serif" font-size="14" font-weight="bold" lengthAdjust="spacing" textLength="125" x="221.25" y="480.9753">Subject Available?</text><text fill="#000000" font-family="sans-serif" font-size="14" lengthAdjust="spacing" textLength="23" x="186.25" y="471.4414">Yes</text><text fill="#000000" font-family="sans-serif" font-size="14" lengthAdjust="spacing" textLength="19" x="358.25" y="471.4414">No</text><rect fill="#F1F1F1" height="39.0679" rx="12.5" ry="12.5" style="stroke:#181818;stroke-width:2.0;" width="173" x="56.75" y="549.0773"/><text fill="#000000" font-family="sans-serif" font-size="14" font-weight="bold" lengthAdjust="spacing" textLength="153" x="66.75" y="574.0432">Display Error Message</text><ellipse cx="143.25" cy="634.1113" fill="none" rx="11" ry="11" style="stroke:#222222;stroke-width:1.0;"/><ellipse cx="143.25" cy="634.1113" fill="#222222" rx="6" ry="6" style="stroke:#222222;stroke-width:1.0;"/><polygon fill="#F1F1F1" points="39.75,497.5433,246.75,497.5433,258.75,509.5433,246.75,521.5433,39.75,521.5433,27.75,509.5433,39.75,497.5433" style="stroke:#181818;stroke-width:2.0;"/><text fill="#000000" font-family="sans-serif" font-size="14" lengthAdjust="spacing" textLength="23" x="147.25" y="536.5093">Yes</text><text fill="#000000" font-family="sans-serif" font-size="14" font-weight="bold" lengthAdjust="spacing" textLength="207" x="39.75" y="514.9753">Attendance Type = One-Time?</text><rect fill="#F1F1F1" height="39.0679" rx="12.5" ry="12.5" style="stroke:#181818;stroke-width:2.0;" width="173" x="337.75" y="549.0773"/><text fill="#000000" font-family="sans-serif" font-size="14" font-weight="bold" lengthAdjust="spacing" textLength="153" x="347.75" y="574.0432">Display Error Message</text><ellipse cx="424.25" cy="634.1113" fill="none" rx="11" ry="11" style="stroke:#222222;stroke-width:1.0;"/><ellipse cx="424.25" cy="634.1113" fill="#222222" rx="6" ry="6" style="stroke:#222222;stroke-width:1.0;"/><polygon fill="#F1F1F1" points="302.75,497.5433,545.75,497.5433,557.75,509.5433,545.75,521.5433,302.75,521.5433,290.75,509.5433,302.75,497.5433" style="stroke:#181818;stroke-width:2.0;"/><text fill="#000000" font-family="sans-serif" font-size="14" lengthAdjust="spacing" textLength="19" x="428.25" y="536.5093">No</text><text fill="#000000" font-family="sans-serif" font-size="14" font-weight="bold" lengthAdjust="spacing" textLength="243" x="302.75" y="514.9753">School AND One-Time Attendance?</text><text fill="#000000" font-family="sans-serif" font-size="14" lengthAdjust="spacing" textLength="23" x="557.75" y="505.4414">Yes</text><polygon fill="#F1F1F1" points="283.75,673.1113,295.75,685.1113,283.75,697.1113,271.75,685.1113,283.75,673.1113" style="stroke:#181818;stroke-width:2.0;"/><rect fill="#F1F1F1" height="39.0679" rx="12.5" ry="12.5" style="stroke:#181818;stroke-width:2.0;" width="178" x="194.75" y="717.1113"/><text fill="#000000" font-family="sans-serif" font-size="14" font-weight="bold" lengthAdjust="spacing" textLength="158" x="204.75" y="742.0772">Generate Session Code</text><rect fill="#F1F1F1" height="39.0679" rx="12.5" ry="12.5" style="stroke:#181818;stroke-width:2.0;" width="183" x="192.25" y="776.1792"/><text fill="#000000" font-family="sans-serif" font-size="14" font-weight="bold" lengthAdjust="spacing" textLength="163" x="202.25" y="801.1451">Set Session Expiry Time</text><rect fill="#F1F1F1" height="39.0679" rx="12.5" ry="12.5" style="stroke:#181818;stroke-width:2.0;" width="224" x="171.75" y="835.2471"/><text fill="#000000" font-family="sans-serif" font-size="14" font-weight="bold" lengthAdjust="spacing" textLength="204" x="181.75" y="860.213">Check Existing Active Session</text><polygon fill="#F1F1F1" points="208.75,894.315,358.75,894.315,370.75,906.315,358.75,918.315,208.75,918.315,196.75,906.315,208.75,894.315" style="stroke:#181818;stroke-width:2.0;"/><text fill="#000000" font-family="sans-serif" font-size="14" font-weight="bold" lengthAdjust="spacing" textLength="150" x="208.75" y="911.747">Active Session Exists?</text><text fill="#000000" font-family="sans-serif" font-size="14" lengthAdjust="spacing" textLength="23" x="173.75" y="902.213">Yes</text><text fill="#000000" font-family="sans-serif" font-size="14" lengthAdjust="spacing" textLength="19" x="370.75" y="902.213">No</text><rect fill="#F1F1F1" height="39.0679" rx="12.5" ry="12.5" style="stroke:#181818;stroke-width:2.0;" width="209" x="11" y="928.315"/><text fill="#000000" font-family="sans-serif" font-size="14" font-weight="bold" lengthAdjust="spacing" textLength="189" x="21" y="953.2809">Display Existing QR Session</text><ellipse cx="115.5" cy="998.3829" fill="none" rx="11" ry="11" style="stroke:#222222;stroke-width:1.0;"/><ellipse cx="115.5" cy="998.3829" fill="#222222" rx="6" ry="6" style="stroke:#222222;stroke-width:1.0;"/><rect fill="#F1F1F1" height="39.0679" rx="12.5" ry="12.5" style="stroke:#181818;stroke-width:2.0;" width="168" x="368" y="928.315"/><text fill="#000000" font-family="sans-serif" font-size="14" font-weight="bold" lengthAdjust="spacing" textLength="148" x="378" y="953.2809">Create Active Session</text><rect fill="#F1F1F1" height="39.0679" rx="12.5" ry="12.5" style="stroke:#181818;stroke-width:2.0;" width="226" x="339" y="987.3829"/><text fill="#000000" font-family="sans-serif" font-size="14" font-weight="bold" lengthAdjust="spacing" textLength="206" x="349" y="1012.3489">Update Attendance Summary</text><rect fill="#F1F1F1" height="39.0679" rx="12.5" ry="12.5" style="stroke:#181818;stroke-width:2.0;" width="206" x="349" y="1046.4508"/><text fill="#000000" font-family="sans-serif" font-size="14" font-weight="bold" lengthAdjust="spacing" textLength="186" x="359" y="1071.4168">Create Session History Log</text><polygon fill="#F1F1F1" points="370.5,1105.5188,533.5,1105.5188,545.5,1117.5188,533.5,1129.5188,370.5,1129.5188,358.5,1117.5188,370.5,1105.5188" style="stroke:#181818;stroke-width:2.0;"/><text fill="#000000" font-family="sans-serif" font-size="14" font-weight="bold" lengthAdjust="spacing" textLength="163" x="370.5" y="1122.9507">Transaction Successful?</text><text fill="#000000" font-family="sans-serif" font-size="14" lengthAdjust="spacing" textLength="23" x="335.5" y="1113.4168">Yes</text><text fill="#000000" font-family="sans-serif" font-size="14" lengthAdjust="spacing" textLength="19" x="545.5" y="1113.4168">No</text><rect fill="#F1F1F1" height="39.0679" rx="12.5" ry="12.5" style="stroke:#181818;stroke-width:2.0;" width="146" x="275.5" y="1139.5188"/><text fill="#000000" font-family="sans-serif" font-size="14" font-weight="bold" lengthAdjust="spacing" textLength="126" x="285.5" y="1164.4847">Generate QR Code</text><rect fill="#F1F1F1" height="39.0679" rx="12.5" ry="12.5" style="stroke:#181818;stroke-width:2.0;" width="197" x="250" y="1198.5867"/><text fill="#000000" font-family="sans-serif" font-size="14" font-weight="bold" lengthAdjust="spacing" textLength="177" x="260" y="1223.5526">Display QR On Dashboard</text><ellipse cx="348.5" cy="1268.6546" fill="none" rx="11" ry="11" style="stroke:#222222;stroke-width:1.0;"/><ellipse cx="348.5" cy="1268.6546" fill="#222222" rx="6" ry="6" style="stroke:#222222;stroke-width:1.0;"/><rect fill="#F1F1F1" height="39.0679" rx="12.5" ry="12.5" style="stroke:#181818;stroke-width:2.0;" width="173" x="469" y="1139.5188"/><text fill="#000000" font-family="sans-serif" font-size="14" font-weight="bold" lengthAdjust="spacing" textLength="153" x="479" y="1164.4847">Display Error Message</text><ellipse cx="555.5" cy="1209.5867" fill="none" rx="11" ry="11" style="stroke:#222222;stroke-width:1.0;"/><ellipse cx="555.5" cy="1209.5867" fill="#222222" rx="6" ry="6" style="stroke:#222222;stroke-width:1.0;"/><line style="stroke:#181818;stroke-width:2.0;" x1="283.75" x2="283.75" y1="70.0679" y2="90.0679"/><polygon fill="#181818" points="279.75,80.0679,283.75,90.0679,287.75,80.0679,283.75,84.0679" style="stroke:#181818;stroke-width:1.0;"/><line style="stroke:#181818;stroke-width:2.0;" x1="283.75" x2="283.75" y1="129.1358" y2="149.1358"/><polygon fill="#181818" points="279.75,139.1358,283.75,149.1358,287.75,139.1358,283.75,143.1358" style="stroke:#181818;stroke-width:1.0;"/><line style="stroke:#181818;stroke-width:2.0;" x1="283.75" x2="283.75" y1="188.2038" y2="208.2038"/><polygon fill="#181818" points="279.75,198.2038,283.75,208.2038,287.75,198.2038,283.75,202.2038" style="stroke:#181818;stroke-width:1.0;"/><line style="stroke:#181818;stroke-width:2.0;" x1="283.75" x2="283.75" y1="266.3396" y2="286.3396"/><polygon fill="#181818" points="279.75,276.3396,283.75,286.3396,287.75,276.3396,283.75,280.3396" style="stroke:#181818;stroke-width:1.0;"/><line style="stroke:#181818;stroke-width:2.0;" x1="283.75" x2="283.75" y1="325.4075" y2="345.4075"/><polygon fill="#181818" points="279.75,335.4075,283.75,345.4075,287.75,335.4075,283.75,339.4075" style="stroke:#181818;stroke-width:1.0;"/><line style="stroke:#181818;stroke-width:2.0;" x1="283.75" x2="283.75" y1="384.4754" y2="404.4754"/><polygon fill="#181818" points="279.75,394.4754,283.75,404.4754,287.75,394.4754,283.75,398.4754" style="stroke:#181818;stroke-width:1.0;"/><line style="stroke:#181818;stroke-width:2.0;" x1="143.25" x2="143.25" y1="588.1452" y2="623.1113"/><polygon fill="#181818" points="139.25,613.1113,143.25,623.1113,147.25,613.1113,143.25,617.1113" style="stroke:#181818;stroke-width:1.0;"/><line style="stroke:#181818;stroke-width:2.0;" x1="143.25" x2="143.25" y1="521.5433" y2="549.0773"/><polygon fill="#181818" points="139.25,539.0773,143.25,549.0773,147.25,539.0773,143.25,543.0773" style="stroke:#181818;stroke-width:1.0;"/><line style="stroke:#181818;stroke-width:2.0;" x1="258.75" x2="270.75" y1="509.5433" y2="509.5433"/><polygon fill="#181818" points="266.75,593.1113,270.75,603.1113,274.75,593.1113,270.75,597.1113" style="stroke:#181818;stroke-width:2.0;"/><line style="stroke:#181818;stroke-width:2.0;" x1="270.75" x2="270.75" y1="509.5433" y2="685.1113"/><line style="stroke:#181818;stroke-width:2.0;" x1="270.75" x2="271.75" y1="685.1113" y2="685.1113"/><polygon fill="#181818" points="261.75,681.1113,271.75,685.1113,261.75,689.1113,265.75,685.1113" style="stroke:#181818;stroke-width:1.0;"/><line style="stroke:#181818;stroke-width:2.0;" x1="424.25" x2="424.25" y1="588.1452" y2="623.1113"/><polygon fill="#181818" points="420.25,613.1113,424.25,623.1113,428.25,613.1113,424.25,617.1113" style="stroke:#181818;stroke-width:1.0;"/><line style="stroke:#181818;stroke-width:2.0;" x1="424.25" x2="424.25" y1="521.5433" y2="549.0773"/><polygon fill="#181818" points="420.25,539.0773,424.25,549.0773,428.25,539.0773,424.25,543.0773" style="stroke:#181818;stroke-width:1.0;"/><line style="stroke:#181818;stroke-width:2.0;" x1="557.75" x2="569.75" y1="509.5433" y2="509.5433"/><polygon fill="#181818" points="565.75,593.1113,569.75,603.1113,573.75,593.1113,569.75,597.1113" style="stroke:#181818;stroke-width:2.0;"/><line style="stroke:#181818;stroke-width:2.0;" x1="569.75" x2="569.75" y1="509.5433" y2="685.1113"/><line style="stroke:#181818;stroke-width:2.0;" x1="569.75" x2="295.75" y1="685.1113" y2="685.1113"/><polygon fill="#181818" points="305.75,681.1113,295.75,685.1113,305.75,689.1113,301.75,685.1113" style="stroke:#181818;stroke-width:1.0;"/><line style="stroke:#181818;stroke-width:2.0;" x1="209.25" x2="143.25" y1="475.5433" y2="475.5433"/><line style="stroke:#181818;stroke-width:2.0;" x1="143.25" x2="143.25" y1="475.5433" y2="497.5433"/><polygon fill="#181818" points="139.25,487.5433,143.25,497.5433,147.25,487.5433,143.25,491.5433" style="stroke:#181818;stroke-width:1.0;"/><line style="stroke:#181818;stroke-width:2.0;" x1="358.25" x2="424.25" y1="475.5433" y2="475.5433"/><line style="stroke:#181818;stroke-width:2.0;" x1="424.25" x2="424.25" y1="475.5433" y2="497.5433"/><polygon fill="#181818" points="420.25,487.5433,424.25,497.5433,428.25,487.5433,424.25,491.5433" style="stroke:#181818;stroke-width:1.0;"/><line style="stroke:#181818;stroke-width:2.0;" x1="283.75" x2="283.75" y1="443.5433" y2="463.5433"/><polygon fill="#181818" points="279.75,453.5433,283.75,463.5433,287.75,453.5433,283.75,457.5433" style="stroke:#181818;stroke-width:1.0;"/><line style="stroke:#181818;stroke-width:2.0;" x1="283.75" x2="283.75" y1="697.1113" y2="717.1113"/><polygon fill="#181818" points="279.75,707.1113,283.75,717.1113,287.75,707.1113,283.75,711.1113" style="stroke:#181818;stroke-width:1.0;"/><line style="stroke:#181818;stroke-width:2.0;" x1="283.75" x2="283.75" y1="756.1792" y2="776.1792"/><polygon fill="#181818" points="279.75,766.1792,283.75,776.1792,287.75,766.1792,283.75,770.1792" style="stroke:#181818;stroke-width:1.0;"/><line style="stroke:#181818;stroke-width:2.0;" x1="283.75" x2="283.75" y1="815.2471" y2="835.2471"/><polygon fill="#181818" points="279.75,825.2471,283.75,835.2471,287.75,825.2471,283.75,829.2471" style="stroke:#181818;stroke-width:1.0;"/><line style="stroke:#181818;stroke-width:2.0;" x1="115.5" x2="115.5" y1="967.3829" y2="987.3829"/><polygon fill="#181818" points="111.5,977.3829,115.5,987.3829,119.5,977.3829,115.5,981.3829" style="stroke:#181818;stroke-width:1.0;"/><line style="stroke:#181818;stroke-width:2.0;" x1="452" x2="452" y1="967.3829" y2="987.3829"/><polygon fill="#181818" points="448,977.3829,452,987.3829,456,977.3829,452,981.3829" style="stroke:#181818;stroke-width:1.0;"/><line style="stroke:#181818;stroke-width:2.0;" x1="452" x2="452" y1="1026.4508" y2="1046.4508"/><polygon fill="#181818" points="448,1036.4508,452,1046.4508,456,1036.4508,452,1040.4508" style="stroke:#181818;stroke-width:1.0;"/><line style="stroke:#181818;stroke-width:2.0;" x1="348.5" x2="348.5" y1="1178.5867" y2="1198.5867"/><polygon fill="#181818" points="344.5,1188.5867,348.5,1198.5867,352.5,1188.5867,348.5,1192.5867" style="stroke:#181818;stroke-width:1.0;"/><line style="stroke:#181818;stroke-width:2.0;" x1="348.5" x2="348.5" y1="1237.6546" y2="1257.6546"/><polygon fill="#181818" points="344.5,1247.6546,348.5,1257.6546,352.5,1247.6546,348.5,1251.6546" style="stroke:#181818;stroke-width:1.0;"/><line style="stroke:#181818;stroke-width:2.0;" x1="555.5" x2="555.5" y1="1178.5867" y2="1198.5867"/><polygon fill="#181818" points="551.5,1188.5867,555.5,1198.5867,559.5,1188.5867,555.5,1192.5867" style="stroke:#181818;stroke-width:1.0;"/><line style="stroke:#181818;stroke-width:2.0;" x1="358.5" x2="348.5" y1="1117.5188" y2="1117.5188"/><line style="stroke:#181818;stroke-width:2.0;" x1="348.5" x2="348.5" y1="1117.5188" y2="1139.5188"/><polygon fill="#181818" points="344.5,1129.5188,348.5,1139.5188,352.5,1129.5188,348.5,1133.5188" style="stroke:#181818;stroke-width:1.0;"/><line style="stroke:#181818;stroke-width:2.0;" x1="545.5" x2="555.5" y1="1117.5188" y2="1117.5188"/><line style="stroke:#181818;stroke-width:2.0;" x1="555.5" x2="555.5" y1="1117.5188" y2="1139.5188"/><polygon fill="#181818" points="551.5,1129.5188,555.5,1139.5188,559.5,1129.5188,555.5,1133.5188" style="stroke:#181818;stroke-width:1.0;"/><line style="stroke:#181818;stroke-width:2.0;" x1="452" x2="452" y1="1085.5188" y2="1105.5188"/><polygon fill="#181818" points="448,1095.5188,452,1105.5188,456,1095.5188,452,1099.5188" style="stroke:#181818;stroke-width:1.0;"/><line style="stroke:#181818;stroke-width:2.0;" x1="196.75" x2="115.5" y1="906.315" y2="906.315"/><line style="stroke:#181818;stroke-width:2.0;" x1="115.5" x2="115.5" y1="906.315" y2="928.315"/><polygon fill="#181818" points="111.5,918.315,115.5,928.315,119.5,918.315,115.5,922.315" style="stroke:#181818;stroke-width:1.0;"/><line style="stroke:#181818;stroke-width:2.0;" x1="370.75" x2="452" y1="906.315" y2="906.315"/><line style="stroke:#181818;stroke-width:2.0;" x1="452" x2="452" y1="906.315" y2="928.315"/><polygon fill="#181818" points="448,918.315,452,928.315,456,918.315,452,922.315" style="stroke:#181818;stroke-width:1.0;"/><line style="stroke:#181818;stroke-width:2.0;" x1="283.75" x2="283.75" y1="874.315" y2="894.315"/><polygon fill="#181818" points="279.75,884.315,283.75,894.315,287.75,884.315,283.75,888.315" style="stroke:#181818;stroke-width:1.0;"/><!--SRC=[hLF1RjGm4BtdAqOzRILG1U84fMZfRk40NT6a1wHU76TsCzIn8tkoDFrw9ibkui1oGUGIo_Fc-OtVStWaMoklAbZXLZM6Rvpbb9uHNhr9mbXSUkz-PYNfHuiXmEkuf9dsnEr7vmlqCOQ93S9bVfLoKw1bM3AZBPJL2Ab0o5cuzgXO5fSN-LMI15QUa-Ijz6IeT8aUlhWTzTLt_VQr4NuuIplWaUHiAgTeK3Di_4vPUkwPNppO5OfKhZe9oXQGDlaFGKLTJLuHmutprRHvXnffFobT8IioOGB81lgABCu94zh2OY3jDc6vbpQL6_pGrS-1IxIm-8xXF4a03k3ePhAsHdWF6uilCwfET85y_VaKQgDQM8it7hwAJBN3GKC72UngMGWjRPC4JK1OtBhuq5INpXbOtgx6qoABJXqyiVoRYE7NzNr2Yrvn50HNOEpZw2widshoBNJoeXoKA3bOFr5WihiXX2FPt8XvRUW99ysO3NIa_dOtfpqCDR_HNb8NPJmfPG3SrqKFY5v1KrNAjp7em79K-rbKE9bUdi5Xgj6-p2iRbEuoBaHQIyUsCN_FotZbCj5qsxyRASMDX5s5CdVA5tzQ-JyYy0i0]--></g></svg>