<?xml version="1.0" encoding="us-ascii" standalone="no"?><svg xmlns="http://www.w3.org/2000/svg" xmlns:xlink="http://www.w3.org/1999/xlink" contentStyleType="text/css" height="1121px" preserveAspectRatio="none" style="width:1002px;height:1121px;background:#FFFFFF;" version="1.1" viewBox="0 0 1002 1121" width="1002px" zoomAndPan="magnify"><defs/><g><text fill="#000000" font-family="sans-serif" font-size="14" font-weight="bold" lengthAdjust="spacing" textLength="287" x="356" y="34.9659">Student QR Code Scan - Mark Attendance</text><ellipse cx="327.6875" cy="60.0679" fill="#222222" rx="10" ry="10" style="stroke:#222222;stroke-width:1.0;"/><rect fill="#F1F1F1" height="39.0679" rx="12.5" ry="12.5" style="stroke:#181818;stroke-width:2.0;" width="206" x="224.6875" y="90.0679"/><text fill="#000000" font-family="sans-serif" font-size="14" font-weight="bold" lengthAdjust="spacing" textLength="186" x="234.6875" y="115.0339">Student Logs Into Account</text><rect fill="#F1F1F1" height="58.1358" rx="12.5" ry="12.5" style="stroke:#181818;stroke-width:2.0;" width="191" x="232.1875" y="149.1358"/><text fill="#000000" font-family="sans-serif" font-size="14" font-weight="bold" lengthAdjust="spacing" textLength="171" x="242.1875" y="174.1018">Click "Mark Attendance"</text><text fill="#000000" font-family="sans-serif" font-size="14" font-weight="bold" lengthAdjust="spacing" textLength="150" x="242.1875" y="193.1697">(Redirect to /scanner)</text><rect fill="#F1F1F1" height="39.0679" rx="12.5" ry="12.5" style="stroke:#181818;stroke-width:2.0;" width="224" x="215.6875" y="227.2717"/><text fill="#000000" font-family="sans-serif" font-size="14" font-weight="bold" lengthAdjust="spacing" textLength="204" x="225.6875" y="252.2376">QR Code Scanner Page Opens</text><rect fill="#F1F1F1" height="58.1358" rx="12.5" ry="12.5" style="stroke:#181818;stroke-width:2.0;" width="208" x="223.6875" y="286.3396"/><text fill="#000000" font-family="sans-serif" font-size="14" font-weight="bold" lengthAdjust="spacing" textLength="95" x="233.6875" y="311.3055">Scan QR Code</text><text fill="#000000" font-family="sans-serif" font-size="14" font-weight="bold" lengthAdjust="spacing" textLength="188" x="233.6875" y="330.3734">(Teacher's Device / Display)</text><rect fill="#F1F1F1" height="39.0679" rx="12.5" ry="12.5" style="stroke:#181818;stroke-width:2.0;" width="216" x="219.6875" y="364.4754"/><text fill="#000000" font-family="sans-serif" font-size="14" font-weight="bold" lengthAdjust="spacing" textLength="196" x="229.6875" y="389.4414">Parse QR Data into JS Object</text><polygon fill="#F1F1F1" points="252.6875,423.5433,402.6875,423.5433,414.6875,435.5433,402.6875,447.5433,252.6875,447.5433,240.6875,435.5433,252.6875,423.5433" style="stroke:#181818;stroke-width:2.0;"/><text fill="#000000" font-family="sans-serif" font-size="14" font-weight="bold" lengthAdjust="spacing" textLength="150" x="252.6875" y="440.9753">Active Session Exists?</text><text fill="#000000" font-family="sans-serif" font-size="14" lengthAdjust="spacing" textLength="19" x="221.6875" y="431.4414">No</text><text fill="#000000" font-family="sans-serif" font-size="14" lengthAdjust="spacing" textLength="23" x="414.6875" y="431.4414">Yes</text><rect fill="#F1F1F1" height="39.0679" rx="12.5" ry="12.5" style="stroke:#181818;stroke-width:2.0;" width="193" x="11" y="457.5433"/><text fill="#000000" font-family="sans-serif" font-size="14" font-weight="bold" lengthAdjust="spacing" textLength="173" x="21" y="482.5093">Display "Failed" Message</text><ellipse cx="107.5" cy="542.6113" fill="none" rx="11" ry="11" style="stroke:#222222;stroke-width:1.0;"/><ellipse cx="107.5" cy="542.6113" fill="#222222" rx="6" ry="6" style="stroke:#222222;stroke-width:1.0;"/><polygon fill="#F1F1F1" points="484.375,457.5433,651.375,457.5433,663.375,469.5433,651.375,481.5433,484.375,481.5433,472.375,469.5433,484.375,457.5433" style="stroke:#181818;stroke-width:2.0;"/><text fill="#000000" font-family="sans-serif" font-size="14" font-weight="bold" lengthAdjust="spacing" textLength="167" x="484.375" y="474.9753">Student Already Joined?</text><text fill="#000000" font-family="sans-serif" font-size="14" lengthAdjust="spacing" textLength="23" x="449.375" y="465.4414">Yes</text><text fill="#000000" font-family="sans-serif" font-size="14" lengthAdjust="spacing" textLength="19" x="663.375" y="465.4414">No</text><rect fill="#F1F1F1" height="58.1358" rx="12.5" ry="12.5" style="stroke:#181818;stroke-width:2.0;" width="292" x="214" y="491.5433"/><text fill="#000000" font-family="sans-serif" font-size="14" font-weight="bold" lengthAdjust="spacing" textLength="76" x="224" y="516.5093">Redirect to</text><text fill="#000000" font-family="sans-serif" font-size="14" font-weight="bold" lengthAdjust="spacing" textLength="272" x="224" y="535.5772">/dashboard/admin/capture-attendance</text><ellipse cx="360" cy="595.6792" fill="none" rx="11" ry="11" style="stroke:#222222;stroke-width:1.0;"/><ellipse cx="360" cy="595.6792" fill="#222222" rx="6" ry="6" style="stroke:#222222;stroke-width:1.0;"/><rect fill="#F1F1F1" height="39.0679" rx="12.5" ry="12.5" style="stroke:#181818;stroke-width:2.0;" width="229" x="661.25" y="491.5433"/><text fill="#000000" font-family="sans-serif" font-size="14" font-weight="bold" lengthAdjust="spacing" textLength="209" x="671.25" y="516.5093">Find Active Session Document</text><rect fill="#F1F1F1" height="77.2038" rx="12.5" ry="12.5" style="stroke:#181818;stroke-width:2.0;" width="206" x="672.75" y="565.6113"/><text fill="#000000" font-family="sans-serif" font-size="14" font-weight="bold" lengthAdjust="spacing" textLength="144" x="682.75" y="590.5772">Push Student Details</text><text fill="#000000" font-family="sans-serif" font-size="14" font-weight="bold" lengthAdjust="spacing" textLength="186" x="682.75" y="609.6451">{markedAttendance: false}</text><text fill="#000000" font-family="sans-serif" font-size="14" font-weight="bold" lengthAdjust="spacing" textLength="184" x="682.75" y="628.713">into ActiveSession.joined[]</text><rect fill="#F1F1F1" height="58.1358" rx="12.5" ry="12.5" style="stroke:#181818;stroke-width:2.0;" width="239" x="656.25" y="662.815"/><text fill="#000000" font-family="sans-serif" font-size="14" font-weight="bold" lengthAdjust="spacing" textLength="219" x="666.25" y="687.7809">Find studentAttendanceHistory</text><text fill="#000000" font-family="sans-serif" font-size="14" font-weight="bold" lengthAdjust="spacing" textLength="72" x="666.25" y="706.8489">Document</text><rect fill="#F1F1F1" height="77.2038" rx="12.5" ry="12.5" style="stroke:#181818;stroke-width:2.0;" width="164" x="693.75" y="740.9508"/><text fill="#000000" font-family="sans-serif" font-size="14" font-weight="bold" lengthAdjust="spacing" textLength="144" x="703.75" y="765.9168">Push Student Details</text><text fill="#000000" font-family="sans-serif" font-size="14" font-weight="bold" lengthAdjust="spacing" textLength="116" x="703.75" y="784.9847">{isMarked: false}</text><text fill="#000000" font-family="sans-serif" font-size="14" font-weight="bold" lengthAdjust="spacing" textLength="91" x="703.75" y="804.0526">into history[]</text><polygon fill="#F1F1F1" points="687.75,838.1546,863.75,838.1546,875.75,850.1546,863.75,862.1546,687.75,862.1546,675.75,850.1546,687.75,838.1546" style="stroke:#181818;stroke-width:2.0;"/><text fill="#000000" font-family="sans-serif" font-size="14" font-weight="bold" lengthAdjust="spacing" textLength="176" x="687.75" y="855.5866">role == "school-student"?</text><text fill="#000000" font-family="sans-serif" font-size="14" lengthAdjust="spacing" textLength="23" x="652.75" y="846.0526">Yes</text><text fill="#000000" font-family="sans-serif" font-size="14" lengthAdjust="spacing" textLength="19" x="875.75" y="846.0526">No</text><rect fill="#F1F1F1" height="39.0679" rx="12.5" ry="12.5" style="stroke:#181818;stroke-width:2.0;" width="164" x="583.75" y="872.1546"/><text fill="#000000" font-family="sans-serif" font-size="14" font-weight="bold" lengthAdjust="spacing" textLength="144" x="593.75" y="897.1205">dept = user.standard</text><rect fill="#F1F1F1" height="39.0679" rx="12.5" ry="12.5" style="stroke:#181818;stroke-width:2.0;" width="134" x="818.75" y="872.1546"/><text fill="#000000" font-family="sans-serif" font-size="14" font-weight="bold" lengthAdjust="spacing" textLength="114" x="828.75" y="897.1205">dept = user.dept</text><polygon fill="#F1F1F1" points="775.75,917.2225,787.75,929.2225,775.75,941.2225,763.75,929.2225,775.75,917.2225" style="stroke:#181818;stroke-width:2.0;"/><polygon fill="#F1F1F1" points="728.75,961.2225,822.75,961.2225,834.75,973.2225,822.75,985.2225,728.75,985.2225,716.75,973.2225,728.75,961.2225" style="stroke:#181818;stroke-width:2.0;"/><text fill="#000000" font-family="sans-serif" font-size="14" font-weight="bold" lengthAdjust="spacing" textLength="94" x="728.75" y="978.6545">data.success?</text><text fill="#000000" font-family="sans-serif" font-size="14" lengthAdjust="spacing" textLength="23" x="693.75" y="969.1205">Yes</text><text fill="#000000" font-family="sans-serif" font-size="14" lengthAdjust="spacing" textLength="19" x="834.75" y="969.1205">No</text><rect fill="#F1F1F1" height="58.1358" rx="12.5" ry="12.5" style="stroke:#181818;stroke-width:2.0;" width="242" x="536" y="995.2225"/><text fill="#000000" font-family="sans-serif" font-size="14" font-weight="bold" lengthAdjust="spacing" textLength="76" x="546" y="1020.1884">Redirect to</text><text fill="#000000" font-family="sans-serif" font-size="14" font-weight="bold" lengthAdjust="spacing" textLength="222" x="546" y="1039.2564">/dashboard/capture-attendance</text><ellipse cx="657" cy="1099.3583" fill="none" rx="11" ry="11" style="stroke:#222222;stroke-width:1.0;"/><ellipse cx="657" cy="1099.3583" fill="#222222" rx="6" ry="6" style="stroke:#222222;stroke-width:1.0;"/><rect fill="#F1F1F1" height="39.0679" rx="12.5" ry="12.5" style="stroke:#181818;stroke-width:2.0;" width="193" x="798" y="995.2225"/><text fill="#000000" font-family="sans-serif" font-size="14" font-weight="bold" lengthAdjust="spacing" textLength="173" x="808" y="1020.1884">Display "Failed" Message</text><ellipse cx="894.5" cy="1080.2904" fill="none" rx="11" ry="11" style="stroke:#222222;stroke-width:1.0;"/><ellipse cx="894.5" cy="1080.2904" fill="#222222" rx="6" ry="6" style="stroke:#222222;stroke-width:1.0;"/><line style="stroke:#181818;stroke-width:2.0;" x1="327.6875" x2="327.6875" y1="70.0679" y2="90.0679"/><polygon fill="#181818" points="323.6875,80.0679,327.6875,90.0679,331.6875,80.0679,327.6875,84.0679" style="stroke:#181818;stroke-width:1.0;"/><line style="stroke:#181818;stroke-width:2.0;" x1="327.6875" x2="327.6875" y1="129.1358" y2="149.1358"/><polygon fill="#181818" points="323.6875,139.1358,327.6875,149.1358,331.6875,139.1358,327.6875,143.1358" style="stroke:#181818;stroke-width:1.0;"/><line style="stroke:#181818;stroke-width:2.0;" x1="327.6875" x2="327.6875" y1="207.2717" y2="227.2717"/><polygon fill="#181818" points="323.6875,217.2717,327.6875,227.2717,331.6875,217.2717,327.6875,221.2717" style="stroke:#181818;stroke-width:1.0;"/><line style="stroke:#181818;stroke-width:2.0;" x1="327.6875" x2="327.6875" y1="266.3396" y2="286.3396"/><polygon fill="#181818" points="323.6875,276.3396,327.6875,286.3396,331.6875,276.3396,327.6875,280.3396" style="stroke:#181818;stroke-width:1.0;"/><line style="stroke:#181818;stroke-width:2.0;" x1="327.6875" x2="327.6875" y1="344.4754" y2="364.4754"/><polygon fill="#181818" points="323.6875,354.4754,327.6875,364.4754,331.6875,354.4754,327.6875,358.4754" style="stroke:#181818;stroke-width:1.0;"/><line style="stroke:#181818;stroke-width:2.0;" x1="107.5" x2="107.5" y1="496.6113" y2="531.6113"/><polygon fill="#181818" points="103.5,521.6113,107.5,531.6113,111.5,521.6113,107.5,525.6113" style="stroke:#181818;stroke-width:1.0;"/><line style="stroke:#181818;stroke-width:2.0;" x1="360" x2="360" y1="549.6792" y2="584.6792"/><polygon fill="#181818" points="356,574.6792,360,584.6792,364,574.6792,360,578.6792" style="stroke:#181818;stroke-width:1.0;"/><line style="stroke:#181818;stroke-width:2.0;" x1="775.75" x2="775.75" y1="530.6113" y2="565.6113"/><polygon fill="#181818" points="771.75,555.6113,775.75,565.6113,779.75,555.6113,775.75,559.6113" style="stroke:#181818;stroke-width:1.0;"/><line style="stroke:#181818;stroke-width:2.0;" x1="775.75" x2="775.75" y1="642.815" y2="662.815"/><polygon fill="#181818" points="771.75,652.815,775.75,662.815,779.75,652.815,775.75,656.815" style="stroke:#181818;stroke-width:1.0;"/><line style="stroke:#181818;stroke-width:2.0;" x1="775.75" x2="775.75" y1="720.9508" y2="740.9508"/><polygon fill="#181818" points="771.75,730.9508,775.75,740.9508,779.75,730.9508,775.75,734.9508" style="stroke:#181818;stroke-width:1.0;"/><line style="stroke:#181818;stroke-width:2.0;" x1="675.75" x2="665.75" y1="850.1546" y2="850.1546"/><line style="stroke:#181818;stroke-width:2.0;" x1="665.75" x2="665.75" y1="850.1546" y2="872.1546"/><polygon fill="#181818" points="661.75,862.1546,665.75,872.1546,669.75,862.1546,665.75,866.1546" style="stroke:#181818;stroke-width:1.0;"/><line style="stroke:#181818;stroke-width:2.0;" x1="875.75" x2="885.75" y1="850.1546" y2="850.1546"/><line style="stroke:#181818;stroke-width:2.0;" x1="885.75" x2="885.75" y1="850.1546" y2="872.1546"/><polygon fill="#181818" points="881.75,862.1546,885.75,872.1546,889.75,862.1546,885.75,866.1546" style="stroke:#181818;stroke-width:1.0;"/><line style="stroke:#181818;stroke-width:2.0;" x1="665.75" x2="665.75" y1="911.2225" y2="929.2225"/><line style="stroke:#181818;stroke-width:2.0;" x1="665.75" x2="763.75" y1="929.2225" y2="929.2225"/><polygon fill="#181818" points="753.75,925.2225,763.75,929.2225,753.75,933.2225,757.75,929.2225" style="stroke:#181818;stroke-width:1.0;"/><line style="stroke:#181818;stroke-width:2.0;" x1="885.75" x2="885.75" y1="911.2225" y2="929.2225"/><line style="stroke:#181818;stroke-width:2.0;" x1="885.75" x2="787.75" y1="929.2225" y2="929.2225"/><polygon fill="#181818" points="797.75,925.2225,787.75,929.2225,797.75,933.2225,793.75,929.2225" style="stroke:#181818;stroke-width:1.0;"/><line style="stroke:#181818;stroke-width:2.0;" x1="775.75" x2="775.75" y1="818.1546" y2="838.1546"/><polygon fill="#181818" points="771.75,828.1546,775.75,838.1546,779.75,828.1546,775.75,832.1546" style="stroke:#181818;stroke-width:1.0;"/><line style="stroke:#181818;stroke-width:2.0;" x1="657" x2="657" y1="1053.3583" y2="1088.3583"/><polygon fill="#181818" points="653,1078.3583,657,1088.3583,661,1078.3583,657,1082.3583" style="stroke:#181818;stroke-width:1.0;"/><line style="stroke:#181818;stroke-width:2.0;" x1="894.5" x2="894.5" y1="1034.2904" y2="1069.2904"/><polygon fill="#181818" points="890.5,1059.2904,894.5,1069.2904,898.5,1059.2904,894.5,1063.2904" style="stroke:#181818;stroke-width:1.0;"/><line style="stroke:#181818;stroke-width:2.0;" x1="716.75" x2="657" y1="973.2225" y2="973.2225"/><line style="stroke:#181818;stroke-width:2.0;" x1="657" x2="657" y1="973.2225" y2="995.2225"/><polygon fill="#181818" points="653,985.2225,657,995.2225,661,985.2225,657,989.2225" style="stroke:#181818;stroke-width:1.0;"/><line style="stroke:#181818;stroke-width:2.0;" x1="834.75" x2="894.5" y1="973.2225" y2="973.2225"/><line style="stroke:#181818;stroke-width:2.0;" x1="894.5" x2="894.5" y1="973.2225" y2="995.2225"/><polygon fill="#181818" points="890.5,985.2225,894.5,995.2225,898.5,985.2225,894.5,989.2225" style="stroke:#181818;stroke-width:1.0;"/><line style="stroke:#181818;stroke-width:2.0;" x1="775.75" x2="775.75" y1="941.2225" y2="961.2225"/><polygon fill="#181818" points="771.75,951.2225,775.75,961.2225,779.75,951.2225,775.75,955.2225" style="stroke:#181818;stroke-width:1.0;"/><line style="stroke:#181818;stroke-width:2.0;" x1="472.375" x2="360" y1="469.5433" y2="469.5433"/><line style="stroke:#181818;stroke-width:2.0;" x1="360" x2="360" y1="469.5433" y2="491.5433"/><polygon fill="#181818" points="356,481.5433,360,491.5433,364,481.5433,360,485.5433" style="stroke:#181818;stroke-width:1.0;"/><line style="stroke:#181818;stroke-width:2.0;" x1="663.375" x2="775.75" y1="469.5433" y2="469.5433"/><line style="stroke:#181818;stroke-width:2.0;" x1="775.75" x2="775.75" y1="469.5433" y2="491.5433"/><polygon fill="#181818" points="771.75,481.5433,775.75,491.5433,779.75,481.5433,775.75,485.5433" style="stroke:#181818;stroke-width:1.0;"/><line style="stroke:#181818;stroke-width:2.0;" x1="240.6875" x2="107.5" y1="435.5433" y2="435.5433"/><line style="stroke:#181818;stroke-width:2.0;" x1="107.5" x2="107.5" y1="435.5433" y2="457.5433"/><polygon fill="#181818" points="103.5,447.5433,107.5,457.5433,111.5,447.5433,107.5,451.5433" style="stroke:#181818;stroke-width:1.0;"/><line style="stroke:#181818;stroke-width:2.0;" x1="414.6875" x2="567.875" y1="435.5433" y2="435.5433"/><line style="stroke:#181818;stroke-width:2.0;" x1="567.875" x2="567.875" y1="435.5433" y2="457.5433"/><polygon fill="#181818" points="563.875,447.5433,567.875,457.5433,571.875,447.5433,567.875,451.5433" style="stroke:#181818;stroke-width:1.0;"/><line style="stroke:#181818;stroke-width:2.0;" x1="327.6875" x2="327.6875" y1="403.5433" y2="423.5433"/><polygon fill="#181818" points="323.6875,413.5433,327.6875,423.5433,331.6875,413.5433,327.6875,417.5433" style="stroke:#181818;stroke-width:1.0;"/><!--SRC=[dPDFRzD04CNl_XGZNqWEYGNYr3P5eI62Yj3Iz8A0msPtKc_Zx5exuqAA-EwC_yLEAQt4oPRspNk_cTcbZNMv2ceBCroh8kEvTxoqzmWlNqUqFvo6u7zSfrPl71B1g_wHPdjdUVVM1uEXhs7B6SB9wdJ9XK77yFaAphn1M6hbO0GB5JOmPKPdbDDuagnEeuXO1OwYerxPHtz3yC6nbopj2yUbyhYId6KI1_43fxWKV7DoFhX2OmDg1gbEI78TXc5NtoUI4xXKDmWNEJhgD1Lj8-oChr7f5CCBai7TMOsGmCnIdgbTp_vI1SAoTgPOWIrRE5_2nUfMY6fLPDSm46KrHU6GoLdluDrFIqnlIiqGE4K7Wqz-64K0fMqJ1F5SsGnD30if4_BQ4e3Ovr64cMGFlY1LTKrEEzDf5b2P7Pnxwz0S1BKLTLPlWFlc4wCeNNaLJABCrhf4gvoBW2DriCpZogI60QXncYvgxxbr1XvqFlEws6AxurPvML0ABViCMVgcFSwlhQmVJRV_8rWhIVkzLzZwyfH1JSxujchyw_V3d8g8wfpExxqimuVTtkv_62qjAih7sT8weSMfF9kD1I-FQ3A1c7JgVJPgwEA_TmRGeXZC6IPG48QnF2Zf8fWEjjl4unNbVq_jZ5qV41cvp6Cgj9PHFaNnpDLvwj8qr-PVjCyzW4E3je7cf_xy0G00]--></g></svg>