<?xml version="1.0" encoding="us-ascii" standalone="no"?><svg xmlns="http://www.w3.org/2000/svg" xmlns:xlink="http://www.w3.org/1999/xlink" contentStyleType="text/css" height="1201px" preserveAspectRatio="none" style="width:1015px;height:1201px;background:#FFFFFF;" version="1.1" viewBox="0 0 1015 1201" width="1015px" zoomAndPan="magnify"><defs/><g><text fill="#000000" font-family="sans-serif" font-size="14" font-weight="bold" lengthAdjust="spacing" textLength="251" x="380.5" y="34.9659">Employee Attendance Marking Flow</text><ellipse cx="434.75" cy="60.0679" fill="#F1F1F1" rx="10" ry="10" style="stroke:#181818;stroke-width:0.5;"/><path d="M437.875,64.3179 L436.6719,61.2242 L432.7188,61.2242 L431.5313,64.3179 L430.25,64.3179 L434.1563,54.2867 L435.2969,54.2867 L439.1875,64.3179 L437.875,64.3179 Z M435.1719,57.0835 Q435.1406,56.9742 435.0313,56.6773 Q434.9375,56.3804 434.8438,56.0679 Q434.7656,55.7554 434.7031,55.5835 Q434.6094,56.021 434.4844,56.4429 Q434.3594,56.8492 434.2656,57.0835 L433.1406,60.0992 L436.2969,60.0992 L435.1719,57.0835 Z " fill="#000000"/><rect fill="#F1F1F1" height="39.0679" rx="12.5" ry="12.5" style="stroke:#181818;stroke-width:2.0;" width="263" x="303.25" y="90.0679"/><text fill="#000000" font-family="sans-serif" font-size="14" font-weight="bold" lengthAdjust="spacing" textLength="243" x="313.25" y="115.0339">Get org from req.session.user.code</text><rect fill="#F1F1F1" height="39.0679" rx="12.5" ry="12.5" style="stroke:#181818;stroke-width:2.0;" width="265" x="302.25" y="149.1358"/><text fill="#000000" font-family="sans-serif" font-size="14" font-weight="bold" lengthAdjust="spacing" textLength="245" x="312.25" y="174.1018">Fetch Employee Name by userCode</text><rect fill="#F1F1F1" height="39.0679" rx="12.5" ry="12.5" style="stroke:#181818;stroke-width:2.0;" width="275" x="297.25" y="208.2038"/><text fill="#000000" font-family="sans-serif" font-size="14" font-weight="bold" lengthAdjust="spacing" textLength="255" x="307.25" y="233.1697">Get Current Date/Time and Weekday</text><rect fill="#F1F1F1" height="39.0679" rx="12.5" ry="12.5" style="stroke:#181818;stroke-width:2.0;" width="269" x="300.25" y="267.2717"/><text fill="#000000" font-family="sans-serif" font-size="14" font-weight="bold" lengthAdjust="spacing" textLength="249" x="310.25" y="292.2376">Fetch org Schedule and Shift Details</text><rect fill="#F1F1F1" height="39.0679" rx="12.5" ry="12.5" style="stroke:#181818;stroke-width:2.0;" width="211" x="329.25" y="326.3396"/><text fill="#000000" font-family="sans-serif" font-size="14" font-weight="bold" lengthAdjust="spacing" textLength="191" x="339.25" y="351.3055">Get Grace Period (default 0)</text><rect fill="#F1F1F1" height="39.0679" rx="12.5" ry="12.5" style="stroke:#181818;stroke-width:2.0;" width="318" x="275.75" y="385.4075"/><text fill="#000000" font-family="sans-serif" font-size="14" font-weight="bold" lengthAdjust="spacing" textLength="298" x="285.75" y="410.3734">Compute currentMinutes and startMinutes</text><rect fill="#F1F1F1" height="39.0679" rx="12.5" ry="12.5" style="stroke:#181818;stroke-width:2.0;" width="251" x="309.25" y="444.4754"/><text fill="#000000" font-family="sans-serif" font-size="14" font-weight="bold" lengthAdjust="spacing" textLength="231" x="319.25" y="469.4414">Determine shiftType (day / night)</text><polygon fill="#F1F1F1" points="367.75,503.5433,501.75,503.5433,513.75,515.5433,501.75,527.5433,367.75,527.5433,355.75,515.5433,367.75,503.5433" style="stroke:#181818;stroke-width:2.0;"/><text fill="#000000" font-family="sans-serif" font-size="14" font-weight="bold" lengthAdjust="spacing" textLength="134" x="367.75" y="520.9753">type == "check-in"?</text><text fill="#000000" font-family="sans-serif" font-size="14" lengthAdjust="spacing" textLength="23" x="332.75" y="511.4414">Yes</text><text fill="#000000" font-family="sans-serif" font-size="14" lengthAdjust="spacing" textLength="102" x="513.75" y="511.4414">No - Check-Out</text><rect fill="#F1F1F1" height="39.0679" rx="12.5" ry="12.5" style="stroke:#181818;stroke-width:2.0;" width="315" x="20" y="537.5433"/><text fill="#000000" font-family="sans-serif" font-size="14" font-weight="bold" lengthAdjust="spacing" textLength="295" x="30" y="562.5093">Fetch EmployeeHistory {org, sessionCode}</text><rect fill="#F1F1F1" height="39.0679" rx="12.5" ry="12.5" style="stroke:#181818;stroke-width:2.0;" width="276" x="39.5" y="648.1452"/><text fill="#000000" font-family="sans-serif" font-size="14" font-weight="bold" lengthAdjust="spacing" textLength="256" x="49.5" y="673.1111">Throw "Employee history not found"</text><ellipse cx="177.5" cy="724.1792" fill="none" rx="11" ry="11" style="stroke:#222222;stroke-width:1.0;"/><ellipse cx="177.5" cy="724.1792" fill="#222222" rx="6" ry="6" style="stroke:#222222;stroke-width:1.0;"/><polygon fill="#F1F1F1" points="124.5,596.6113,230.5,596.6113,242.5,608.6113,230.5,620.6113,124.5,620.6113,112.5,608.6113,124.5,596.6113" style="stroke:#181818;stroke-width:2.0;"/><text fill="#000000" font-family="sans-serif" font-size="14" lengthAdjust="spacing" textLength="19" x="181.5" y="635.5772">No</text><text fill="#000000" font-family="sans-serif" font-size="14" font-weight="bold" lengthAdjust="spacing" textLength="106" x="124.5" y="614.0432">History Found?</text><text fill="#000000" font-family="sans-serif" font-size="14" lengthAdjust="spacing" textLength="23" x="242.5" y="604.5093">Yes</text><rect fill="#F1F1F1" height="39.0679" rx="12.5" ry="12.5" style="stroke:#181818;stroke-width:2.0;" width="250" x="52.5" y="828.7131"/><text fill="#000000" font-family="sans-serif" font-size="14" font-weight="bold" lengthAdjust="spacing" textLength="230" x="62.5" y="853.6791">Determine Status (late / on-time)</text><rect fill="#F1F1F1" height="58.1358" rx="12.5" ry="12.5" style="stroke:#181818;stroke-width:2.0;" width="333" x="11" y="901.7131"/><text fill="#000000" font-family="sans-serif" font-size="14" font-weight="bold" lengthAdjust="spacing" textLength="165" x="21" y="926.6791">Push New History Entry</text><text fill="#000000" font-family="sans-serif" font-size="14" font-weight="bold" lengthAdjust="spacing" textLength="313" x="21" y="945.747">{code, name, checkIn, checkOut: null, status}</text><polygon fill="#F1F1F1" points="72.5,777.1792,282.5,777.1792,294.5,789.1792,282.5,801.1792,72.5,801.1792,60.5,789.1792,72.5,777.1792" style="stroke:#181818;stroke-width:2.0;"/><text fill="#000000" font-family="sans-serif" font-size="14" lengthAdjust="spacing" textLength="19" x="181.5" y="816.1451">No</text><text fill="#000000" font-family="sans-serif" font-size="14" font-weight="bold" lengthAdjust="spacing" textLength="210" x="72.5" y="794.6111">userCode Already Checked In?</text><text fill="#000000" font-family="sans-serif" font-size="14" lengthAdjust="spacing" textLength="23" x="294.5" y="785.0772">Yes</text><polygon fill="#F1F1F1" points="177.5,979.849,189.5,991.849,177.5,1003.849,165.5,991.849,177.5,979.849" style="stroke:#181818;stroke-width:2.0;"/><rect fill="#F1F1F1" height="39.0679" rx="12.5" ry="12.5" style="stroke:#181818;stroke-width:2.0;" width="315" x="534.5" y="537.5433"/><text fill="#000000" font-family="sans-serif" font-size="14" font-weight="bold" lengthAdjust="spacing" textLength="295" x="544.5" y="562.5093">Fetch EmployeeHistory {org, sessionCode}</text><rect fill="#F1F1F1" height="39.0679" rx="12.5" ry="12.5" style="stroke:#181818;stroke-width:2.0;" width="276" x="554" y="648.1452"/><text fill="#000000" font-family="sans-serif" font-size="14" font-weight="bold" lengthAdjust="spacing" textLength="256" x="564" y="673.1111">Throw "Employee history not found"</text><ellipse cx="692" cy="724.1792" fill="none" rx="11" ry="11" style="stroke:#222222;stroke-width:1.0;"/><ellipse cx="692" cy="724.1792" fill="#222222" rx="6" ry="6" style="stroke:#222222;stroke-width:1.0;"/><polygon fill="#F1F1F1" points="639,596.6113,745,596.6113,757,608.6113,745,620.6113,639,620.6113,627,608.6113,639,596.6113" style="stroke:#181818;stroke-width:2.0;"/><text fill="#000000" font-family="sans-serif" font-size="14" lengthAdjust="spacing" textLength="19" x="696" y="635.5772">No</text><text fill="#000000" font-family="sans-serif" font-size="14" font-weight="bold" lengthAdjust="spacing" textLength="106" x="639" y="614.0432">History Found?</text><text fill="#000000" font-family="sans-serif" font-size="14" lengthAdjust="spacing" textLength="23" x="757" y="604.5093">Yes</text><rect fill="#F1F1F1" height="39.0679" rx="12.5" ry="12.5" style="stroke:#181818;stroke-width:2.0;" width="300" x="542" y="828.7131"/><text fill="#000000" font-family="sans-serif" font-size="14" font-weight="bold" lengthAdjust="spacing" textLength="280" x="552" y="853.6791">Return 400 "User didn't check-in earlier"</text><ellipse cx="692" cy="912.7131" fill="none" rx="11" ry="11" style="stroke:#222222;stroke-width:1.0;"/><ellipse cx="692" cy="912.7131" fill="#222222" rx="6" ry="6" style="stroke:#222222;stroke-width:1.0;"/><polygon fill="#F1F1F1" points="596,777.1792,788,777.1792,800,789.1792,788,801.1792,596,801.1792,584,789.1792,596,777.1792" style="stroke:#181818;stroke-width:2.0;"/><text fill="#000000" font-family="sans-serif" font-size="14" lengthAdjust="spacing" textLength="19" x="696" y="816.1451">No</text><text fill="#000000" font-family="sans-serif" font-size="14" font-weight="bold" lengthAdjust="spacing" textLength="192" x="596" y="794.6111">userCode Found in History?</text><text fill="#000000" font-family="sans-serif" font-size="14" lengthAdjust="spacing" textLength="23" x="800" y="785.0772">Yes</text><polygon fill="#F1F1F1" points="614,984.7131,770,984.7131,782,996.7131,770,1008.7131,614,1008.7131,602,996.7131,614,984.7131" style="stroke:#181818;stroke-width:2.0;"/><text fill="#000000" font-family="sans-serif" font-size="14" font-weight="bold" lengthAdjust="spacing" textLength="156" x="614" y="1002.1451">checkOut Already Set?</text><text fill="#000000" font-family="sans-serif" font-size="14" lengthAdjust="spacing" textLength="23" x="579" y="992.6111">Yes</text><text fill="#000000" font-family="sans-serif" font-size="14" lengthAdjust="spacing" textLength="19" x="782" y="992.6111">No</text><rect fill="#F1F1F1" height="39.0679" rx="12.5" ry="12.5" style="stroke:#181818;stroke-width:2.0;" width="278" x="396" y="1018.7131"/><text fill="#000000" font-family="sans-serif" font-size="14" font-weight="bold" lengthAdjust="spacing" textLength="258" x="406" y="1043.6791">Return "Attendance already marked"</text><ellipse cx="535" cy="1088.781" fill="none" rx="11" ry="11" style="stroke:#222222;stroke-width:1.0;"/><ellipse cx="535" cy="1088.781" fill="#222222" rx="6" ry="6" style="stroke:#222222;stroke-width:1.0;"/><rect fill="#F1F1F1" height="39.0679" rx="12.5" ry="12.5" style="stroke:#181818;stroke-width:2.0;" width="298" x="700" y="1018.7131"/><text fill="#000000" font-family="sans-serif" font-size="14" font-weight="bold" lengthAdjust="spacing" textLength="278" x="710" y="1043.6791">Increment EmployeeSummary.attended</text><rect fill="#F1F1F1" height="39.0679" rx="12.5" ry="12.5" style="stroke:#181818;stroke-width:2.0;" width="310" x="694" y="1077.781"/><text fill="#000000" font-family="sans-serif" font-size="14" font-weight="bold" lengthAdjust="spacing" textLength="290" x="704" y="1102.747">Update EmployeeHistory.checkOut = now</text><polygon fill="#F1F1F1" points="434.75,1126.849,446.75,1138.849,434.75,1150.849,422.75,1138.849,434.75,1126.849" style="stroke:#181818;stroke-width:2.0;"/><ellipse cx="434.75" cy="1180.849" fill="#F1F1F1" rx="10" ry="10" style="stroke:#181818;stroke-width:0.5;"/><path d="M434.8906,1176.8177 Q433.2813,1176.8177 432.3594,1177.8958 Q431.4375,1178.974 431.4375,1180.849 Q431.4375,1182.7083 432.2969,1183.8021 Q433.1563,1184.8802 434.875,1184.8802 Q435.5313,1184.8802 436.125,1184.7708 Q436.7188,1184.6615 437.2656,1184.4896 L437.2656,1185.5833 Q436.7188,1185.7865 436.1094,1185.8802 Q435.5156,1185.9896 434.7031,1185.9896 Q433.1719,1185.9896 432.1406,1185.3646 Q431.125,1184.724 430.6094,1183.5677 Q430.1094,1182.4115 430.1094,1180.8333 Q430.1094,1179.3177 430.6563,1178.1771 Q431.2031,1177.0208 432.2813,1176.3646 Q433.3594,1175.7083 434.9063,1175.7083 Q436.4844,1175.7083 437.6563,1176.3021 L437.1563,1177.3646 Q436.7031,1177.1615 436.125,1176.9896 Q435.5625,1176.8177 434.8906,1176.8177 Z " fill="#000000"/><line style="stroke:#181818;stroke-width:2.0;" x1="434.75" x2="434.75" y1="70.0679" y2="90.0679"/><polygon fill="#181818" points="430.75,80.0679,434.75,90.0679,438.75,80.0679,434.75,84.0679" style="stroke:#181818;stroke-width:1.0;"/><line style="stroke:#181818;stroke-width:2.0;" x1="434.75" x2="434.75" y1="129.1358" y2="149.1358"/><polygon fill="#181818" points="430.75,139.1358,434.75,149.1358,438.75,139.1358,434.75,143.1358" style="stroke:#181818;stroke-width:1.0;"/><line style="stroke:#181818;stroke-width:2.0;" x1="434.75" x2="434.75" y1="188.2038" y2="208.2038"/><polygon fill="#181818" points="430.75,198.2038,434.75,208.2038,438.75,198.2038,434.75,202.2038" style="stroke:#181818;stroke-width:1.0;"/><line style="stroke:#181818;stroke-width:2.0;" x1="434.75" x2="434.75" y1="247.2717" y2="267.2717"/><polygon fill="#181818" points="430.75,257.2717,434.75,267.2717,438.75,257.2717,434.75,261.2717" style="stroke:#181818;stroke-width:1.0;"/><line style="stroke:#181818;stroke-width:2.0;" x1="434.75" x2="434.75" y1="306.3396" y2="326.3396"/><polygon fill="#181818" points="430.75,316.3396,434.75,326.3396,438.75,316.3396,434.75,320.3396" style="stroke:#181818;stroke-width:1.0;"/><line style="stroke:#181818;stroke-width:2.0;" x1="434.75" x2="434.75" y1="365.4075" y2="385.4075"/><polygon fill="#181818" points="430.75,375.4075,434.75,385.4075,438.75,375.4075,434.75,379.4075" style="stroke:#181818;stroke-width:1.0;"/><line style="stroke:#181818;stroke-width:2.0;" x1="434.75" x2="434.75" y1="424.4754" y2="444.4754"/><polygon fill="#181818" points="430.75,434.4754,434.75,444.4754,438.75,434.4754,434.75,438.4754" style="stroke:#181818;stroke-width:1.0;"/><line style="stroke:#181818;stroke-width:2.0;" x1="177.5" x2="177.5" y1="687.2131" y2="713.1792"/><polygon fill="#181818" points="173.5,703.1792,177.5,713.1792,181.5,703.1792,177.5,707.1792" style="stroke:#181818;stroke-width:1.0;"/><line style="stroke:#181818;stroke-width:2.0;" x1="177.5" x2="177.5" y1="620.6113" y2="648.1452"/><polygon fill="#181818" points="173.5,638.1452,177.5,648.1452,181.5,638.1452,177.5,642.1452" style="stroke:#181818;stroke-width:1.0;"/><line style="stroke:#181818;stroke-width:2.0;" x1="242.5" x2="325.5" y1="608.6113" y2="608.6113"/><polygon fill="#181818" points="321.5,683.1792,325.5,693.1792,329.5,683.1792,325.5,687.1792" style="stroke:#181818;stroke-width:2.0;"/><line style="stroke:#181818;stroke-width:2.0;" x1="325.5" x2="325.5" y1="608.6113" y2="757.1792"/><line style="stroke:#181818;stroke-width:2.0;" x1="325.5" x2="177.5" y1="757.1792" y2="757.1792"/><line style="stroke:#181818;stroke-width:2.0;" x1="177.5" x2="177.5" y1="757.1792" y2="777.1792"/><polygon fill="#181818" points="173.5,767.1792,177.5,777.1792,181.5,767.1792,177.5,771.1792" style="stroke:#181818;stroke-width:1.0;"/><line style="stroke:#181818;stroke-width:2.0;" x1="177.5" x2="177.5" y1="576.6113" y2="596.6113"/><polygon fill="#181818" points="173.5,586.6113,177.5,596.6113,181.5,586.6113,177.5,590.6113" style="stroke:#181818;stroke-width:1.0;"/><line style="stroke:#181818;stroke-width:2.0;" x1="177.5" x2="177.5" y1="867.781" y2="901.7131"/><polygon fill="#181818" points="173.5,891.7131,177.5,901.7131,181.5,891.7131,177.5,895.7131" style="stroke:#181818;stroke-width:1.0;"/><line style="stroke:#181818;stroke-width:2.0;" x1="177.5" x2="177.5" y1="801.1792" y2="828.7131"/><polygon fill="#181818" points="173.5,818.7131,177.5,828.7131,181.5,818.7131,177.5,822.7131" style="stroke:#181818;stroke-width:1.0;"/><line style="stroke:#181818;stroke-width:2.0;" x1="294.5" x2="354" y1="789.1792" y2="789.1792"/><polygon fill="#181818" points="350,883.7471,354,893.7471,358,883.7471,354,887.7471" style="stroke:#181818;stroke-width:2.0;"/><line style="stroke:#181818;stroke-width:2.0;" x1="354" x2="354" y1="789.1792" y2="991.849"/><line style="stroke:#181818;stroke-width:2.0;" x1="354" x2="189.5" y1="991.849" y2="991.849"/><polygon fill="#181818" points="199.5,987.849,189.5,991.849,199.5,995.849,195.5,991.849" style="stroke:#181818;stroke-width:1.0;"/><line style="stroke:#181818;stroke-width:2.0;" x1="177.5" x2="177.5" y1="959.849" y2="979.849"/><polygon fill="#181818" points="173.5,969.849,177.5,979.849,181.5,969.849,177.5,973.849" style="stroke:#181818;stroke-width:1.0;"/><line style="stroke:#181818;stroke-width:2.0;" x1="692" x2="692" y1="687.2131" y2="713.1792"/><polygon fill="#181818" points="688,703.1792,692,713.1792,696,703.1792,692,707.1792" style="stroke:#181818;stroke-width:1.0;"/><line style="stroke:#181818;stroke-width:2.0;" x1="692" x2="692" y1="620.6113" y2="648.1452"/><polygon fill="#181818" points="688,638.1452,692,648.1452,696,638.1452,692,642.1452" style="stroke:#181818;stroke-width:1.0;"/><line style="stroke:#181818;stroke-width:2.0;" x1="757" x2="840" y1="608.6113" y2="608.6113"/><polygon fill="#181818" points="836,683.1792,840,693.1792,844,683.1792,840,687.1792" style="stroke:#181818;stroke-width:2.0;"/><line style="stroke:#181818;stroke-width:2.0;" x1="840" x2="840" y1="608.6113" y2="757.1792"/><line style="stroke:#181818;stroke-width:2.0;" x1="840" x2="692" y1="757.1792" y2="757.1792"/><line style="stroke:#181818;stroke-width:2.0;" x1="692" x2="692" y1="757.1792" y2="777.1792"/><polygon fill="#181818" points="688,767.1792,692,777.1792,696,767.1792,692,771.1792" style="stroke:#181818;stroke-width:1.0;"/><line style="stroke:#181818;stroke-width:2.0;" x1="692" x2="692" y1="576.6113" y2="596.6113"/><polygon fill="#181818" points="688,586.6113,692,596.6113,696,586.6113,692,590.6113" style="stroke:#181818;stroke-width:1.0;"/><line style="stroke:#181818;stroke-width:2.0;" x1="692" x2="692" y1="867.781" y2="901.7131"/><polygon fill="#181818" points="688,891.7131,692,901.7131,696,891.7131,692,895.7131" style="stroke:#181818;stroke-width:1.0;"/><line style="stroke:#181818;stroke-width:2.0;" x1="692" x2="692" y1="801.1792" y2="828.7131"/><polygon fill="#181818" points="688,818.7131,692,828.7131,696,818.7131,692,822.7131" style="stroke:#181818;stroke-width:1.0;"/><line style="stroke:#181818;stroke-width:2.0;" x1="800" x2="852" y1="789.1792" y2="789.1792"/><polygon fill="#181818" points="848,863.7471,852,873.7471,856,863.7471,852,867.7471" style="stroke:#181818;stroke-width:2.0;"/><line style="stroke:#181818;stroke-width:2.0;" x1="852" x2="852" y1="789.1792" y2="957.2471"/><line style="stroke:#181818;stroke-width:2.0;" x1="852" x2="692" y1="957.2471" y2="957.2471"/><line style="stroke:#181818;stroke-width:2.0;" x1="692" x2="692" y1="957.2471" y2="984.7131"/><polygon fill="#181818" points="688,974.7131,692,984.7131,696,974.7131,692,978.7131" style="stroke:#181818;stroke-width:1.0;"/><line style="stroke:#181818;stroke-width:2.0;" x1="535" x2="535" y1="1057.781" y2="1077.781"/><polygon fill="#181818" points="531,1067.781,535,1077.781,539,1067.781,535,1071.781" style="stroke:#181818;stroke-width:1.0;"/><line style="stroke:#181818;stroke-width:2.0;" x1="849" x2="849" y1="1057.781" y2="1077.781"/><polygon fill="#181818" points="845,1067.781,849,1077.781,853,1067.781,849,1071.781" style="stroke:#181818;stroke-width:1.0;"/><line style="stroke:#181818;stroke-width:2.0;" x1="602" x2="535" y1="996.7131" y2="996.7131"/><line style="stroke:#181818;stroke-width:2.0;" x1="535" x2="535" y1="996.7131" y2="1018.7131"/><polygon fill="#181818" points="531,1008.7131,535,1018.7131,539,1008.7131,535,1012.7131" style="stroke:#181818;stroke-width:1.0;"/><line style="stroke:#181818;stroke-width:2.0;" x1="782" x2="849" y1="996.7131" y2="996.7131"/><line style="stroke:#181818;stroke-width:2.0;" x1="849" x2="849" y1="996.7131" y2="1018.7131"/><polygon fill="#181818" points="845,1008.7131,849,1018.7131,853,1008.7131,849,1012.7131" style="stroke:#181818;stroke-width:1.0;"/><line style="stroke:#181818;stroke-width:2.0;" x1="849" x2="849" y1="1116.849" y2="1138.849"/><line style="stroke:#181818;stroke-width:2.0;" x1="849" x2="446.75" y1="1138.849" y2="1138.849"/><polygon fill="#181818" points="456.75,1134.849,446.75,1138.849,456.75,1142.849,452.75,1138.849" style="stroke:#181818;stroke-width:1.0;"/><line style="stroke:#181818;stroke-width:2.0;" x1="355.75" x2="177.5" y1="515.5433" y2="515.5433"/><line style="stroke:#181818;stroke-width:2.0;" x1="177.5" x2="177.5" y1="515.5433" y2="537.5433"/><polygon fill="#181818" points="173.5,527.5433,177.5,537.5433,181.5,527.5433,177.5,531.5433" style="stroke:#181818;stroke-width:1.0;"/><line style="stroke:#181818;stroke-width:2.0;" x1="513.75" x2="692" y1="515.5433" y2="515.5433"/><line style="stroke:#181818;stroke-width:2.0;" x1="692" x2="692" y1="515.5433" y2="537.5433"/><polygon fill="#181818" points="688,527.5433,692,537.5433,696,527.5433,692,531.5433" style="stroke:#181818;stroke-width:1.0;"/><line style="stroke:#181818;stroke-width:2.0;" x1="177.5" x2="177.5" y1="1003.849" y2="1138.849"/><line style="stroke:#181818;stroke-width:2.0;" x1="177.5" x2="422.75" y1="1138.849" y2="1138.849"/><polygon fill="#181818" points="412.75,1134.849,422.75,1138.849,412.75,1142.849,416.75,1138.849" style="stroke:#181818;stroke-width:1.0;"/><line style="stroke:#181818;stroke-width:2.0;" x1="434.75" x2="434.75" y1="483.5433" y2="503.5433"/><polygon fill="#181818" points="430.75,493.5433,434.75,503.5433,438.75,493.5433,434.75,497.5433" style="stroke:#181818;stroke-width:1.0;"/><line style="stroke:#181818;stroke-width:2.0;" x1="434.75" x2="434.75" y1="1150.849" y2="1170.849"/><polygon fill="#181818" points="430.75,1160.849,434.75,1170.849,438.75,1160.849,434.75,1164.849" style="stroke:#181818;stroke-width:1.0;"/><!--SRC=[rLJBRjim4BphAnQ-r0RyQf5J6gTmdJZr8MbGEoWAz4ABQukmj7J9LGqroBztQKb-1cYkFUd1sPdPsGNzoj1QEPN13IvKdlBO4a_D7uJt5v7V7GwTivjPOk8LeVVmuV0ePlFRSF7PEetk4CE6KuIh-VLjjavjWGX3PYIjA4QuLquebZ1ExUQgDx-EekQm5KMN0hz31kkMi70s0uU_kbxuZALkxj5rOwin57pSOiV8SG8xWGUL8SmB2CZH4J2GZdBda1Xk56DlPWIgICDtn9LMnIbdS32D4zHvMkAcYLb8BR8ogJycldDAMdf4Pwo6fYwJX7vhZnhPR9qpGbnQk3SaNtxBwrcv-iU-G7JGPOOGVD2T5MiKPbL03yWi4wwu8xE0fi0vd0y6q137yQfZgF4f05h02H8qVw2NS07E8_jYF5jNmBFqsuOgwH3TIoK0K4dKoB7DIP-p0s3gnUE33U-br2oHjO76RZn9HK6MOH5e6gL8mCl9Ef2GDei3rNgIC4mTAbt0A3I86YRqDW_x8AUiEFVGJ6Ny4gEb3iiEjFOM0lmnzmayu0RgTc-9tNOvVf8SFuVrQmF9dhLXc_M4gfUlELy2vMdQ3YCLfPUQkUgfzWQTiecELFplKzdAWg4whhSv-8QSEuABVXyQJq85scXwnr0lBw1ogK7tRoDryhlrc2A_vk58jt5m3wcgBfFx25_h_CpyX6A7MRX7wWIdUIRbHLTjQL4VRzJJMeU5EnbjT-Ty8C5lJbUbV3H7hKZBXHCdqLy0]--></g></svg>