<?xml version="1.0" encoding="us-ascii" standalone="no"?><svg xmlns="http://www.w3.org/2000/svg" xmlns:xlink="http://www.w3.org/1999/xlink" contentStyleType="text/css" height="918px" preserveAspectRatio="none" style="width:842px;height:918px;background:#FFFFFF;" version="1.1" viewBox="0 0 842 918" width="842px" zoomAndPan="magnify"><defs/><g><text fill="#000000" font-family="sans-serif" font-size="14" font-weight="bold" lengthAdjust="spacing" textLength="286" x="276.5" y="34.9659">Face Recognition Attendance - Main Flow</text><ellipse cx="506.125" cy="60.0679" fill="#222222" rx="10" ry="10" style="stroke:#222222;stroke-width:1.0;"/><rect fill="#F1F1F1" height="39.0679" rx="12.5" ry="12.5" style="stroke:#181818;stroke-width:2.0;" width="262" x="375.125" y="90.0679"/><text fill="#000000" font-family="sans-serif" font-size="14" font-weight="bold" lengthAdjust="spacing" textLength="242" x="385.125" y="115.0339">capture-attendance.ejs Page Loads</text><rect fill="#F1F1F1" height="39.0679" rx="12.5" ry="12.5" style="stroke:#181818;stroke-width:2.0;" width="254" x="379.125" y="149.1358"/><text fill="#000000" font-family="sans-serif" font-size="14" font-weight="bold" lengthAdjust="spacing" textLength="234" x="389.125" y="174.1018">Pre-load Face Recognition Models</text><rect fill="#F1F1F1" height="39.0679" rx="12.5" ry="12.5" style="stroke:#181818;stroke-width:2.0;" width="279" x="366.625" y="208.2038"/><text fill="#000000" font-family="sans-serif" font-size="14" font-weight="bold" lengthAdjust="spacing" textLength="259" x="376.625" y="233.1697">Pre-fetch Registered Face Descriptors</text><rect fill="#F1F1F1" height="39.0679" rx="12.5" ry="12.5" style="stroke:#181818;stroke-width:2.0;" width="205" x="403.625" y="267.2717"/><text fill="#000000" font-family="sans-serif" font-size="14" font-weight="bold" lengthAdjust="spacing" textLength="185" x="413.625" y="292.2376">User Clicks "Start Camera"</text><rect fill="#F1F1F1" height="39.0679" rx="12.5" ry="12.5" style="stroke:#181818;stroke-width:2.0;" width="187" x="412.625" y="326.3396"/><text fill="#000000" font-family="sans-serif" font-size="14" font-weight="bold" lengthAdjust="spacing" textLength="167" x="422.625" y="351.3055">Capture Live Video Feed</text><polygon fill="#F1F1F1" points="431.125,385.4075,581.125,385.4075,593.125,397.4075,581.125,409.4075,431.125,409.4075,419.125,397.4075,431.125,385.4075" style="stroke:#181818;stroke-width:2.0;"/><text fill="#000000" font-family="sans-serif" font-size="14" font-weight="bold" lengthAdjust="spacing" textLength="150" x="431.125" y="402.8395">Single Face Detected?</text><text fill="#000000" font-family="sans-serif" font-size="14" lengthAdjust="spacing" textLength="23" x="396.125" y="393.3055">Yes</text><text fill="#000000" font-family="sans-serif" font-size="14" lengthAdjust="spacing" textLength="19" x="593.125" y="393.3055">No</text><rect fill="#F1F1F1" height="39.0679" rx="12.5" ry="12.5" style="stroke:#181818;stroke-width:2.0;" width="288" x="152.75" y="419.4075"/><text fill="#000000" font-family="sans-serif" font-size="14" font-weight="bold" lengthAdjust="spacing" textLength="268" x="162.75" y="444.3734">Compare Face With Stored Descriptors</text><polygon fill="#F1F1F1" points="236.25,478.4754,357.25,478.4754,369.25,490.4754,357.25,502.4754,236.25,502.4754,224.25,490.4754,236.25,478.4754" style="stroke:#181818;stroke-width:2.0;"/><text fill="#000000" font-family="sans-serif" font-size="14" font-weight="bold" lengthAdjust="spacing" textLength="121" x="236.25" y="495.9074">Face Recognized?</text><text fill="#000000" font-family="sans-serif" font-size="14" lengthAdjust="spacing" textLength="23" x="201.25" y="486.3734">Yes</text><text fill="#000000" font-family="sans-serif" font-size="14" lengthAdjust="spacing" textLength="19" x="369.25" y="486.3734">No</text><rect fill="#F1F1F1" height="39.0679" rx="12.5" ry="12.5" style="stroke:#181818;stroke-width:2.0;" width="282" x="11" y="512.4754"/><text fill="#000000" font-family="sans-serif" font-size="14" font-weight="bold" lengthAdjust="spacing" textLength="262" x="21" y="537.4414">Send Attendance Request To Backend</text><rect fill="#F1F1F1" height="39.0679" rx="12.5" ry="12.5" style="stroke:#181818;stroke-width:2.0;" width="257" x="313" y="512.4754"/><text fill="#000000" font-family="sans-serif" font-size="14" font-weight="bold" lengthAdjust="spacing" textLength="237" x="323" y="537.4414">Display "Unknown Face Detected"</text><ellipse cx="441.5" cy="582.5433" fill="none" rx="11" ry="11" style="stroke:#222222;stroke-width:1.0;"/><ellipse cx="441.5" cy="582.5433" fill="#222222" rx="6" ry="6" style="stroke:#222222;stroke-width:1.0;"/><rect fill="#F1F1F1" height="39.0679" rx="12.5" ry="12.5" style="stroke:#181818;stroke-width:2.0;" width="231" x="600" y="419.4075"/><text fill="#000000" font-family="sans-serif" font-size="14" font-weight="bold" lengthAdjust="spacing" textLength="211" x="610" y="444.3734">Don't Proceed (Multiple Faces)</text><ellipse cx="715.5" cy="489.4754" fill="none" rx="11" ry="11" style="stroke:#222222;stroke-width:1.0;"/><ellipse cx="715.5" cy="489.4754" fill="#222222" rx="6" ry="6" style="stroke:#222222;stroke-width:1.0;"/><rect fill="#F1F1F1" height="39.0679" rx="12.5" ry="12.5" style="stroke:#181818;stroke-width:2.0;" width="202" x="405.125" y="613.5433"/><text fill="#000000" font-family="sans-serif" font-size="14" font-weight="bold" lengthAdjust="spacing" textLength="182" x="415.125" y="638.5093">Backend Receives Request</text><rect fill="#F1F1F1" height="39.0679" rx="12.5" ry="12.5" style="stroke:#181818;stroke-width:2.0;" width="190" x="411.125" y="724.1452"/><text fill="#000000" font-family="sans-serif" font-size="14" font-weight="bold" lengthAdjust="spacing" textLength="170" x="421.125" y="749.1111">Terminate - Return Error</text><ellipse cx="506.125" cy="800.1792" fill="none" rx="11" ry="11" style="stroke:#222222;stroke-width:1.0;"/><ellipse cx="506.125" cy="800.1792" fill="#222222" rx="6" ry="6" style="stroke:#222222;stroke-width:1.0;"/><polygon fill="#F1F1F1" points="401.125,672.6113,611.125,672.6113,623.125,684.6113,611.125,696.6113,401.125,696.6113,389.125,684.6113,401.125,672.6113" style="stroke:#181818;stroke-width:2.0;"/><text fill="#000000" font-family="sans-serif" font-size="14" lengthAdjust="spacing" textLength="19" x="510.125" y="711.5772">No</text><text fill="#000000" font-family="sans-serif" font-size="14" font-weight="bold" lengthAdjust="spacing" textLength="210" x="401.125" y="690.0432">Required Parameters Present?</text><text fill="#000000" font-family="sans-serif" font-size="14" lengthAdjust="spacing" textLength="23" x="623.125" y="680.5093">Yes</text><polygon fill="#F1F1F1" points="481.125,853.1792,531.125,853.1792,543.125,865.1792,531.125,877.1792,481.125,877.1792,469.125,865.1792,481.125,853.1792" style="stroke:#181818;stroke-width:2.0;"/><text fill="#000000" font-family="sans-serif" font-size="14" font-weight="bold" lengthAdjust="spacing" textLength="50" x="481.125" y="870.6111">isUser?</text><text fill="#000000" font-family="sans-serif" font-size="14" lengthAdjust="spacing" textLength="65" x="404.125" y="861.0772">Employee</text><text fill="#000000" font-family="sans-serif" font-size="14" lengthAdjust="spacing" textLength="53" x="543.125" y="861.0772">Student</text><ellipse cx="459.125" cy="897.1792" fill="#F1F1F1" rx="10" ry="10" style="stroke:#181818;stroke-width:0.5;"/><path d="M462.25,901.4292 L461.0469,898.3354 L457.0938,898.3354 L455.9063,901.4292 L454.625,901.4292 L458.5313,891.3979 L459.6719,891.3979 L463.5625,901.4292 L462.25,901.4292 Z M459.5469,894.1948 Q459.5156,894.0854 459.4063,893.7885 Q459.3125,893.4917 459.2188,893.1792 Q459.1406,892.8667 459.0781,892.6948 Q458.9844,893.1323 458.8594,893.5542 Q458.7344,893.9604 458.6406,894.1948 L457.5156,897.2104 L460.6719,897.2104 L459.5469,894.1948 Z " fill="#000000"/><ellipse cx="553.125" cy="897.1792" fill="#F1F1F1" rx="10" ry="10" style="stroke:#181818;stroke-width:0.5;"/><path d="M553.3438,892.1792 Q555.2188,892.1792 556.1719,892.7417 Q557.1406,893.2885 557.1406,894.6635 Q557.1406,895.5385 556.6406,896.1323 Q556.1563,896.7104 555.2344,896.8667 L555.2344,896.9448 Q555.8594,897.0385 556.3594,897.3042 Q556.875,897.5698 557.1719,898.0698 Q557.4688,898.5542 557.4688,899.3354 Q557.4688,900.6948 556.5313,901.4448 Q555.6094,902.1792 554,902.1792 L550.4844,902.1792 L550.4844,892.1792 L553.3438,892.1792 Z M553.5938,896.4448 Q554.875,896.4448 555.3438,896.0385 Q555.8281,895.6167 555.8281,894.8042 Q555.8281,893.976 555.25,893.6167 Q554.6719,893.2573 553.3906,893.2573 L551.75,893.2573 L551.75,896.4448 L553.5938,896.4448 Z M551.75,897.4917 L551.75,901.1167 L553.7656,901.1167 Q555.0938,901.1167 555.6094,900.601 Q556.125,900.0854 556.125,899.2417 Q556.125,898.4604 555.5781,897.976 Q555.0469,897.4917 553.6563,897.4917 L551.75,897.4917 Z " fill="#000000"/><line style="stroke:#181818;stroke-width:2.0;" x1="506.125" x2="506.125" y1="70.0679" y2="90.0679"/><polygon fill="#181818" points="502.125,80.0679,506.125,90.0679,510.125,80.0679,506.125,84.0679" style="stroke:#181818;stroke-width:1.0;"/><line style="stroke:#181818;stroke-width:2.0;" x1="506.125" x2="506.125" y1="129.1358" y2="149.1358"/><polygon fill="#181818" points="502.125,139.1358,506.125,149.1358,510.125,139.1358,506.125,143.1358" style="stroke:#181818;stroke-width:1.0;"/><line style="stroke:#181818;stroke-width:2.0;" x1="506.125" x2="506.125" y1="188.2038" y2="208.2038"/><polygon fill="#181818" points="502.125,198.2038,506.125,208.2038,510.125,198.2038,506.125,202.2038" style="stroke:#181818;stroke-width:1.0;"/><line style="stroke:#181818;stroke-width:2.0;" x1="506.125" x2="506.125" y1="247.2717" y2="267.2717"/><polygon fill="#181818" points="502.125,257.2717,506.125,267.2717,510.125,257.2717,506.125,261.2717" style="stroke:#181818;stroke-width:1.0;"/><line style="stroke:#181818;stroke-width:2.0;" x1="506.125" x2="506.125" y1="306.3396" y2="326.3396"/><polygon fill="#181818" points="502.125,316.3396,506.125,326.3396,510.125,316.3396,506.125,320.3396" style="stroke:#181818;stroke-width:1.0;"/><line style="stroke:#181818;stroke-width:2.0;" x1="441.5" x2="441.5" y1="551.5433" y2="571.5433"/><polygon fill="#181818" points="437.5,561.5433,441.5,571.5433,445.5,561.5433,441.5,565.5433" style="stroke:#181818;stroke-width:1.0;"/><line style="stroke:#181818;stroke-width:2.0;" x1="224.25" x2="152" y1="490.4754" y2="490.4754"/><line style="stroke:#181818;stroke-width:2.0;" x1="152" x2="152" y1="490.4754" y2="512.4754"/><polygon fill="#181818" points="148,502.4754,152,512.4754,156,502.4754,152,506.4754" style="stroke:#181818;stroke-width:1.0;"/><line style="stroke:#181818;stroke-width:2.0;" x1="369.25" x2="441.5" y1="490.4754" y2="490.4754"/><line style="stroke:#181818;stroke-width:2.0;" x1="441.5" x2="441.5" y1="490.4754" y2="512.4754"/><polygon fill="#181818" points="437.5,502.4754,441.5,512.4754,445.5,502.4754,441.5,506.4754" style="stroke:#181818;stroke-width:1.0;"/><line style="stroke:#181818;stroke-width:2.0;" x1="152" x2="152" y1="551.5433" y2="598.5433"/><line style="stroke:#181818;stroke-width:2.0;" x1="152" x2="506.125" y1="598.5433" y2="598.5433"/><line style="stroke:#181818;stroke-width:2.0;" x1="506.125" x2="506.125" y1="598.5433" y2="613.5433"/><polygon fill="#181818" points="502.125,603.5433,506.125,613.5433,510.125,603.5433,506.125,607.5433" style="stroke:#181818;stroke-width:1.0;"/><line style="stroke:#181818;stroke-width:2.0;" x1="296.75" x2="296.75" y1="458.4754" y2="478.4754"/><polygon fill="#181818" points="292.75,468.4754,296.75,478.4754,300.75,468.4754,296.75,472.4754" style="stroke:#181818;stroke-width:1.0;"/><line style="stroke:#181818;stroke-width:2.0;" x1="715.5" x2="715.5" y1="458.4754" y2="478.4754"/><polygon fill="#181818" points="711.5,468.4754,715.5,478.4754,719.5,468.4754,715.5,472.4754" style="stroke:#181818;stroke-width:1.0;"/><line style="stroke:#181818;stroke-width:2.0;" x1="419.125" x2="296.75" y1="397.4075" y2="397.4075"/><line style="stroke:#181818;stroke-width:2.0;" x1="296.75" x2="296.75" y1="397.4075" y2="419.4075"/><polygon fill="#181818" points="292.75,409.4075,296.75,419.4075,300.75,409.4075,296.75,413.4075" style="stroke:#181818;stroke-width:1.0;"/><line style="stroke:#181818;stroke-width:2.0;" x1="593.125" x2="715.5" y1="397.4075" y2="397.4075"/><line style="stroke:#181818;stroke-width:2.0;" x1="715.5" x2="715.5" y1="397.4075" y2="419.4075"/><polygon fill="#181818" points="711.5,409.4075,715.5,419.4075,719.5,409.4075,715.5,413.4075" style="stroke:#181818;stroke-width:1.0;"/><line style="stroke:#181818;stroke-width:2.0;" x1="506.125" x2="506.125" y1="365.4075" y2="385.4075"/><polygon fill="#181818" points="502.125,375.4075,506.125,385.4075,510.125,375.4075,506.125,379.4075" style="stroke:#181818;stroke-width:1.0;"/><line style="stroke:#181818;stroke-width:2.0;" x1="506.125" x2="506.125" y1="763.2131" y2="789.1792"/><polygon fill="#181818" points="502.125,779.1792,506.125,789.1792,510.125,779.1792,506.125,783.1792" style="stroke:#181818;stroke-width:1.0;"/><line style="stroke:#181818;stroke-width:2.0;" x1="506.125" x2="506.125" y1="696.6113" y2="724.1452"/><polygon fill="#181818" points="502.125,714.1452,506.125,724.1452,510.125,714.1452,506.125,718.1452" style="stroke:#181818;stroke-width:1.0;"/><line style="stroke:#181818;stroke-width:2.0;" x1="623.125" x2="635.125" y1="684.6113" y2="684.6113"/><polygon fill="#181818" points="631.125,759.1792,635.125,769.1792,639.125,759.1792,635.125,763.1792" style="stroke:#181818;stroke-width:2.0;"/><line style="stroke:#181818;stroke-width:2.0;" x1="635.125" x2="635.125" y1="684.6113" y2="833.1792"/><line style="stroke:#181818;stroke-width:2.0;" x1="635.125" x2="506.125" y1="833.1792" y2="833.1792"/><line style="stroke:#181818;stroke-width:2.0;" x1="506.125" x2="506.125" y1="833.1792" y2="853.1792"/><polygon fill="#181818" points="502.125,843.1792,506.125,853.1792,510.125,843.1792,506.125,847.1792" style="stroke:#181818;stroke-width:1.0;"/><line style="stroke:#181818;stroke-width:2.0;" x1="506.125" x2="506.125" y1="652.6113" y2="672.6113"/><polygon fill="#181818" points="502.125,662.6113,506.125,672.6113,510.125,662.6113,506.125,666.6113" style="stroke:#181818;stroke-width:1.0;"/><line style="stroke:#181818;stroke-width:2.0;" x1="469.125" x2="459.125" y1="865.1792" y2="865.1792"/><line style="stroke:#181818;stroke-width:2.0;" x1="459.125" x2="459.125" y1="865.1792" y2="887.1792"/><polygon fill="#181818" points="455.125,877.1792,459.125,887.1792,463.125,877.1792,459.125,881.1792" style="stroke:#181818;stroke-width:1.0;"/><line style="stroke:#181818;stroke-width:2.0;" x1="543.125" x2="553.125" y1="865.1792" y2="865.1792"/><line style="stroke:#181818;stroke-width:2.0;" x1="553.125" x2="553.125" y1="865.1792" y2="887.1792"/><polygon fill="#181818" points="549.125,877.1792,553.125,887.1792,557.125,877.1792,553.125,881.1792" style="stroke:#181818;stroke-width:1.0;"/><!--SRC=[RLBBRjim4BppAnQ-L3uaHOkUsY217_4fBWpBQT4ZGwwjhILI9TSndA_lKf9ZgUwLEpCxCzou9rVhe2kOurOVIbvunpcz8NpwekBxS1A2FsuACdk7CSBd_iWmlHAVfZvO37qC4vS8To_t2sqGrcZypX6JTp1XHcUra-SRM6foi2ZzyUxZoxrIaNLWfRuAp-YQ3m5lz3ly5dz7MEaTmfFNDYR6jmQw4bWfJt2rQ-ajblyWjyYc4DIE8cF0ZZN7Q0BLx4CF_XmnmAoKL156UV86CrrXqACBPjRwX2TwHVX15Zqi46qBKBI5J40vkPtKqMrYD8ps8K76m0Kwo7vX72i5q2ZwIjhjq3-92yZ5bXYzyYY4Ra4_-Tl_j05QyLpAx7_16lySC39iF4orsSjpAmqWnI5at_s5EwTOb_e4esUtT_xeXdb6Po90P5yd1MTfgzH5g0iuz-u3mofu8qL1jfJBexgh9uxFCes8wZGIhVENOgAK7S_UXrMdHqfjhTA5YhSWHnCmekFhLlePqueDXegSvdIQQvH_TV0erny6dZfBtJwAwKe6qezLNVeJOXCucoHnYwnDSUuYvuCLF-ryEfWtsdy1]--></g></svg>